<?xml version="1.0" encoding="UTF-8"?>
<svg id="_레이어_1" data-name="레이어 1" xmlns="http://www.w3.org/2000/svg" viewBox="0 0 6.8 6.8">
  <defs>
    <style>
      .cls-1 {
        fill: none;
      }

      .cls-2 {
        fill: #3026b3;
      }
    </style>
  </defs>
  <rect class="cls-1" width="6.8" height="6.8"/>
  <path class="cls-2" d="M6.16,4.65c-.1.74-.73,1.3-1.49,1.3-2.11,0-3.83-1.72-3.83-3.83,0-.75.56-1.39,1.3-1.48.19-.02.37.08.44.25l.56,1.25h0c.06.13.04.28-.03.4,0,0,0,.01-.02.02l-.55.66c.2.4.62.82,1.03,1.02l.65-.55s.01-.01.02-.01c.12-.08.27-.09.4-.04h0s1.25.56,1.25.56c.17.07.28.25.25.44Z"/>
</svg>