<?xml version="1.0" encoding="UTF-8"?>
<svg id="_레이어_1" xmlns="http://www.w3.org/2000/svg" xmlns:xlink="http://www.w3.org/1999/xlink" version="1.1" viewBox="0 0 112.6 95.9">
  <!-- Generator: Adobe Illustrator 30.2.1, SVG Export Plug-In . SVG Version: 2.1.1 Build 1)  -->
  <defs>
    <style>
      .st0 {
        fill: none;
      }

      .st1 {
        fill: #6d319d;
      }

      .st2 {
        fill: #fbb03b;
      }

      .st3 {
        clip-path: url(#clippath);
      }
    </style>
    <clipPath id="clippath">
      <rect class="st0" x="23.9" y="-13.8" width="92.8" height="129.4" transform="translate(-4.3 95.2) rotate(-66.6)"/>
    </clipPath>
  </defs>
  <g class="st3">
    <g>
      <path class="st1" d="M140.5,47.4l-75.4,47c-5.9,3.7-13.6.4-14.9-6.4l-5.5-27.4-.6-3.1,14.8-9.2,4.1-2.6.6,3.1,3.9,19.5,44-27.4-33-14.3h0s0,0,0,0l-20.9-9.1,1.3,6.3.6,3.1s2,9.9,2.1,9.9v.4h-.2c0,.1-9.8,6.2-9.8,6.2l-9,5.7-2.1-10.5-.6-3.1-1.7-8h0s0,0,0,0v-.2l-7.1-35.6c0-.3-.1-.7-.1-1,0-3.3,3.5-5.9,6.9-4.4l11.2,4.9c2.2.9,3.7,2.8,4.2,5.1l3.8,19.3h0s0,0,0,0c1.6-1,3.3-2,4.9-3.1h0s.3-.2.7-.5c0,0,.2-.1.3-.2.1,0,.2-.1.4-.2.1,0,.2-.2.4-.2.2-.1.4-.2.6-.4.2-.1.4-.2.6-.4.1,0,.2-.1.4-.2,0,0,.2-.1.3-.2.2-.1.4-.3.7-.4l5.9-3.8c.2-.1.3-.2.4-.2.1,0,.3-.2.4-.2l1.6-.7c.1,0,.2,0,.2,0,.6-.1,1.1-.3,1.7-.4,1.8-.3,3.6,0,5.3.7l18.5,8,39.1,16.9c7.3,3.1,8.1,13.2,1.3,17.4Z"/>
      <polygon class="st2" points="-.5 51.5 -.3 51.6 -.5 51.7 -.5 51.5"/>
      <path class="st2" d="M100.1,13.1c-7.2,4.5-14.4,9-21.6,13.5-18.6,11.6-37.2,23.2-55.8,34.9L-.3,51.6c14.4-9.1,27.4-17.3,38.3-24.2,7.3-4.6,13.7-8.6,18.9-11.9,8.3-5.2,13.6-8.6,15.1-9.5.2-.1.3-.2.4-.2.1,0,.3-.2.4-.2.7-.4,1.3-.6,1.6-.7.1,0,.2,0,.2,0,.1,0,.3-.1.6-.2.2,0,.5-.1,1.1-.2.5,0,.8-.1,1.2-.1.1,0,.7,0,1.5,0,.6,0,1.5.3,2.6.7,6.2,2.7,12.3,5.3,18.5,8Z"/>
      <line class="st0" x1="56.9" y1="15.6" x2="56.9" y2="15.5"/>
    </g>
  </g>
</svg>