<?xml version="1.0" encoding="UTF-8"?>
<svg id="_레이어_1" data-name="레이어 1" xmlns="http://www.w3.org/2000/svg" viewBox="0 0 6.8 6.8">
  <defs>
    <style>
      .cls-1 {
        fill: none;
      }

      .cls-2 {
        fill: #3026b3;
      }

      .cls-3 {
        fill: #fff;
      }
    </style>
  </defs>
  <path class="cls-2" d="M6.12,2.05c-.07-.24-.26-.44-.5-.5-.44-.12-2.21-.12-2.21-.12,0,0-1.77,0-2.21.12-.24.07-.44.26-.5.5-.12.44-.12,1.36-.12,1.36,0,0,0,.92.12,1.36.07.24.26.44.5.5.44.12,2.21.12,2.21.12,0,0,1.77,0,2.21-.12.24-.07.44-.26.5-.5.12-.44.12-1.36.12-1.36,0,0,0-.92-.12-1.36Z"/>
  <path class="cls-3" d="M2.83,4.26v-1.7l1.47.85-1.47.85Z"/>
  <rect class="cls-1" y="0" width="6.8" height="6.8"/>
</svg>