<?xml version="1.0" encoding="UTF-8"?>
<svg id="_레이어_1" data-name="레이어 1" xmlns="http://www.w3.org/2000/svg" viewBox="0 0 66.42 9.94">
  <defs>
    <style>
      .cls-1 {
        fill: #3026b3;
      }
    </style>
  </defs>
  <path class="cls-1" d="M3.54,9.57H0V.37h3.5c.95,0,1.76.18,2.45.55.69.37,1.22.89,1.6,1.58.38.69.57,1.51.57,2.46s-.19,1.78-.56,2.47c-.37.69-.9,1.21-1.59,1.58-.69.37-1.49.55-2.43.55ZM2.5,7.45h.95c.45,0,.84-.07,1.16-.22.32-.15.57-.4.74-.76.17-.36.26-.86.26-1.5s-.09-1.14-.26-1.5c-.17-.36-.42-.61-.75-.76-.33-.15-.73-.22-1.21-.22h-.88v4.95Z"/>
  <path class="cls-1" d="M9.4,9.57V.37h6.62v2.01h-4.13v1.58h3.79v2.01h-3.79v1.58h4.11v2.01h-6.61Z"/>
  <path class="cls-1" d="M17.38.37h3.11l2.14,5.21h.11L24.87.37h3.11v9.19h-2.44v-5.31h-.07l-2.05,5.24h-1.47l-2.05-5.28h-.07v5.35h-2.44V.37Z"/>
  <path class="cls-1" d="M43.4,9.57h-3.54V.37h3.5c.95,0,1.76.18,2.45.55.69.37,1.22.89,1.6,1.58.38.69.57,1.51.57,2.46s-.19,1.78-.56,2.47c-.37.69-.9,1.21-1.59,1.58-.69.37-1.49.55-2.43.55ZM42.36,7.45h.95c.45,0,.84-.07,1.16-.22.32-.15.57-.4.74-.76.17-.36.26-.86.26-1.5s-.09-1.14-.26-1.5c-.17-.36-.42-.61-.75-.76-.33-.15-.73-.22-1.21-.22h-.88v4.95Z"/>
  <path class="cls-1" d="M49.26,9.57V.37h6.62v2.01h-4.13v1.58h3.79v2.01h-3.79v1.58h4.11v2.01h-6.61Z"/>
  <path class="cls-1" d="M59.76.37l1.89,6.48h.07l1.89-6.48h2.82l-3.03,9.19h-3.41L56.94.37h2.82Z"/>
  <path class="cls-1" d="M30.95,4.11l-2.06,1.41c-.28-6.87,8.73-7.26,9.86-1.54l-3.64-2.07-3.16,2.38c.19.35.94.94,1.3,1.19-.88-.06-1.9-.94-2.3-1.37Z"/>
  <path class="cls-1" d="M38.74,5.99c-1.37,5.16-7.25,4.66-8.99,1.83,6.01,2.14,8.28-3,5.37-5.77,2.67,1.42,3.51,3.01,3.63,3.94Z"/>
</svg>