<?xml version="1.0" encoding="UTF-8"?>
<svg id="_레이어_1" xmlns="http://www.w3.org/2000/svg" version="1.1" viewBox="0 0 39.7 39.6">
  <!-- Generator: Adobe Illustrator 30.2.1, SVG Export Plug-In . SVG Version: 2.1.1 Build 1)  -->
  <defs>
    <style>
      .st0 {
        fill: #3026b3;
      }

      .st1 {
        fill: #fff;
      }
    </style>
  </defs>
  <g>
    <path class="st1" d="M32.8,0c-.2.2-.5.5-.8.8v5.8c0,.3.6.9.9.9h5.7c.3,0,.8-.5.8-.9V.8C39.3.5,39,.2,38.7,0h1v39.6H0v-.8c.2.2.5.5.8.7h5.8c.6-.2.9-.7.9-1.3v-5.3c0-.3-.6-.8-.9-.8H.8c-.3.2-.6.5-.8.7V6.7c.2.2.5.6.8.7h5.8c.6-.2.9-.7.9-1.3V.8C7.3.5,7,.2,6.7,0h26.1ZM9.5.5c0-.2-.2-.4-.4-.4s-.4.2-.4.4.2.4.4.4.4-.2.4-.4ZM10.6.5c0-.2-.2-.4-.4-.4s-.4.2-.4.4.2.4.4.4.4-.2.4-.4ZM11.6.5c0-.2-.2-.4-.4-.4s-.4.2-.4.4.2.4.4.4.4-.2.4-.4ZM12.7.5c0-.2-.2-.4-.4-.4s-.4.2-.4.4.2.4.4.4.4-.2.4-.4ZM13.8.5c0-.2-.2-.4-.4-.4s-.4.2-.4.4.2.4.4.4.4-.2.4-.4ZM14.8.5c0-.2-.2-.4-.4-.4s-.4.2-.4.4.2.4.4.4.4-.2.4-.4ZM15.9.5c0-.2-.2-.4-.4-.4s-.4.2-.4.4.2.4.4.4.4-.2.4-.4ZM18,.5c0-.2-.2-.4-.4-.4s-.4.2-.4.4.2.4.4.4.4-.2.4-.4ZM19.1.5c0-.2-.2-.4-.4-.4s-.4.2-.4.4.2.4.4.4.4-.2.4-.4ZM20.2.5c0-.2-.2-.4-.4-.4s-.4.2-.4.4.2.4.4.4.4-.2.4-.4ZM21.2.5c0-.2-.2-.4-.4-.4s-.4.2-.4.4.2.4.4.4.4-.2.4-.4ZM24.4.5c0-.2-.2-.4-.4-.4s-.4.2-.4.4.2.4.4.4.4-.2.4-.4ZM26.6.5c0-.2-.2-.4-.4-.4s-.4.2-.4.4.2.4.4.4.4-.2.4-.4ZM28.7.5c0-.2-.2-.4-.4-.4s-.4.2-.4.4.2.4.4.4.4-.2.4-.4ZM30.8.5c0-.2-.2-.4-.4-.4s-.4.2-.4.4.2.4.4.4.4-.2.4-.4ZM10.6,1.6c0-.2-.2-.4-.4-.4s-.4.2-.4.4.2.4.4.4.4-.2.4-.4ZM11.6,1.6c0-.2-.2-.4-.4-.4s-.4.2-.4.4.2.4.4.4.4-.2.4-.4ZM12.7,1.6c0-.2-.2-.4-.4-.4s-.4.2-.4.4.2.4.4.4.4-.2.4-.4ZM15.9,1.6c0-.2-.2-.4-.4-.4s-.4.2-.4.4.2.4.4.4.4-.2.4-.4ZM19.1,1.6c0-.2-.2-.4-.4-.4s-.4.2-.4.4.2.4.4.4.4-.2.4-.4ZM22.3,1.6c0-.2-.2-.4-.4-.4s-.4.2-.4.4.2.4.4.4.4-.2.4-.4ZM29.8,1.6c0-.2-.2-.4-.4-.4s-.4.2-.4.4.2.4.4.4.4-.2.4-.4ZM12.7,2.7c0-.2-.2-.4-.4-.4s-.4.2-.4.4.2.4.4.4.4-.2.4-.4ZM13.8,2.7c0-.2-.2-.4-.4-.4s-.4.2-.4.4.2.4.4.4.4-.2.4-.4ZM14.8,2.7c0-.2-.2-.4-.4-.4s-.4.2-.4.4.2.4.4.4.4-.2.4-.4ZM21.2,2.7c0-.2-.2-.4-.4-.4s-.4.2-.4.4.2.4.4.4.4-.2.4-.4ZM22.3,2.7c0-.2-.2-.4-.4-.4s-.4.2-.4.4.2.4.4.4.4-.2.4-.4ZM23.4,2.7c0-.2-.2-.4-.4-.4s-.4.2-.4.4.2.4.4.4.4-.2.4-.4ZM25.5,2.7c0-.2-.2-.4-.4-.4s-.4.2-.4.4.2.4.4.4.4-.2.4-.4ZM28.7,2.7c0-.2-.2-.4-.4-.4s-.4.2-.4.4.2.4.4.4.4-.2.4-.4ZM9.5,3.7c0-.2-.2-.4-.4-.4s-.4.2-.4.4.2.4.4.4.4-.2.4-.4ZM11.6,3.7c0-.2-.2-.4-.4-.4s-.4.2-.4.4.2.4.4.4.4-.2.4-.4ZM14.8,3.7c0-.2-.2-.4-.4-.4s-.4.2-.4.4.2.4.4.4.4-.2.4-.4ZM17,3.7c0-.2-.2-.4-.4-.4s-.4.2-.4.4.2.4.4.4.4-.2.4-.4ZM19.1,3.7c0-.2-.2-.4-.4-.4s-.4.2-.4.4.2.4.4.4.4-.2.4-.4ZM20.2,3.7c0-.2-.2-.4-.4-.4s-.4.2-.4.4.2.4.4.4.4-.2.4-.4ZM21.2,3.7c0-.2-.2-.4-.4-.4s-.4.2-.4.4.2.4.4.4.4-.2.4-.4ZM22.3,3.7c0-.2-.2-.4-.4-.4s-.4.2-.4.4.2.4.4.4.4-.2.4-.4ZM23.4,3.7c0-.2-.2-.4-.4-.4s-.4.2-.4.4.2.4.4.4.4-.2.4-.4ZM24.4,3.7c0-.2-.2-.4-.4-.4s-.4.2-.4.4.2.4.4.4.4-.2.4-.4ZM25.5,3.7c0-.2-.2-.4-.4-.4s-.4.2-.4.4.2.4.4.4.4-.2.4-.4ZM27.6,3.7c0-.2-.2-.4-.4-.4s-.4.2-.4.4.2.4.4.4.4-.2.4-.4ZM28.7,3.7c0-.2-.2-.4-.4-.4s-.4.2-.4.4.2.4.4.4.4-.2.4-.4ZM30.8,3.7c0-.2-.2-.4-.4-.4s-.4.2-.4.4.2.4.4.4.4-.2.4-.4ZM9.5,4.8c0-.2-.2-.4-.4-.4s-.4.2-.4.4.2.4.4.4.4-.2.4-.4ZM10.6,4.8c0-.2-.2-.4-.4-.4s-.4.2-.4.4.2.4.4.4.4-.2.4-.4ZM11.6,4.8c0-.2-.2-.4-.4-.4s-.4.2-.4.4.2.4.4.4.4-.2.4-.4ZM12.7,4.8c0-.2-.2-.4-.4-.4s-.4.2-.4.4.2.4.4.4.4-.2.4-.4ZM15.9,4.8c0-.2-.2-.4-.4-.4s-.4.2-.4.4.2.4.4.4.4-.2.4-.4ZM17,4.8c0-.2-.2-.4-.4-.4s-.4.2-.4.4.2.4.4.4.4-.2.4-.4ZM20.2,4.8c0-.2-.2-.4-.4-.4s-.4.2-.4.4.2.4.4.4.4-.2.4-.4ZM21.2,4.8c0-.2-.2-.4-.4-.4s-.4.2-.4.4.2.4.4.4.4-.2.4-.4ZM22.3,4.8c0-.2-.2-.4-.4-.4s-.4.2-.4.4.2.4.4.4.4-.2.4-.4ZM23.4,4.8c0-.2-.2-.4-.4-.4s-.4.2-.4.4.2.4.4.4.4-.2.4-.4ZM24.4,4.8c0-.2-.2-.4-.4-.4s-.4.2-.4.4.2.4.4.4.4-.2.4-.4ZM27.6,4.8c0-.2-.2-.4-.4-.4s-.4.2-.4.4.2.4.4.4.4-.2.4-.4ZM28.7,4.8c0-.2-.2-.4-.4-.4s-.4.2-.4.4.2.4.4.4.4-.2.4-.4ZM29.8,4.8c0-.2-.2-.4-.4-.4s-.4.2-.4.4.2.4.4.4.4-.2.4-.4ZM30.8,4.8c0-.2-.2-.4-.4-.4s-.4.2-.4.4.2.4.4.4.4-.2.4-.4ZM9.5,5.9c0-.2-.2-.4-.4-.4s-.4.2-.4.4.2.4.4.4.4-.2.4-.4ZM10.6,5.9c0-.2-.2-.4-.4-.4s-.4.2-.4.4.2.4.4.4.4-.2.4-.4ZM12.7,5.9c0-.2-.2-.4-.4-.4s-.4.2-.4.4.2.4.4.4.4-.2.4-.4ZM13.8,5.9c0-.2-.2-.4-.4-.4s-.4.2-.4.4.2.4.4.4.4-.2.4-.4ZM14.8,5.9c0-.2-.2-.4-.4-.4s-.4.2-.4.4.2.4.4.4.4-.2.4-.4ZM15.9,5.9c0-.2-.2-.4-.4-.4s-.4.2-.4.4.2.4.4.4.4-.2.4-.4ZM17,5.9c0-.2-.2-.4-.4-.4s-.4.2-.4.4.2.4.4.4.4-.2.4-.4ZM18,5.9c0-.2-.2-.4-.4-.4s-.4.2-.4.4.2.4.4.4.4-.2.4-.4ZM20.2,5.9c0-.2-.2-.4-.4-.4s-.4.2-.4.4.2.4.4.4.4-.2.4-.4ZM21.2,5.9c0-.2-.2-.4-.4-.4s-.4.2-.4.4.2.4.4.4.4-.2.4-.4ZM23.4,5.9c0-.2-.2-.4-.4-.4s-.4.2-.4.4.2.4.4.4.4-.2.4-.4ZM24.4,5.9c0-.2-.2-.4-.4-.4s-.4.2-.4.4.2.4.4.4.4-.2.4-.4ZM25.5,5.9c0-.2-.2-.4-.4-.4s-.4.2-.4.4.2.4.4.4.4-.2.4-.4ZM26.6,5.9c0-.2-.2-.4-.4-.4s-.4.2-.4.4.2.4.4.4.4-.2.4-.4ZM27.6,5.9c0-.2-.2-.4-.4-.4s-.4.2-.4.4.2.4.4.4.4-.2.4-.4ZM28.7,5.9c0-.2-.2-.4-.4-.4s-.4.2-.4.4.2.4.4.4.4-.2.4-.4ZM30.8,5.9c0-.2-.2-.4-.4-.4s-.4.2-.4.4.2.4.4.4.4-.2.4-.4ZM9.5,6.9c0-.2-.2-.4-.4-.4s-.4.2-.4.4.2.4.4.4.4-.2.4-.4ZM11.6,6.9c0-.2-.2-.4-.4-.4s-.4.2-.4.4.2.4.4.4.4-.2.4-.4ZM13.8,6.9c0-.2-.2-.4-.4-.4s-.4.2-.4.4.2.4.4.4.4-.2.4-.4ZM15.9,6.9c0-.2-.2-.4-.4-.4s-.4.2-.4.4.2.4.4.4.4-.2.4-.4ZM18,6.9c0-.2-.2-.4-.4-.4s-.4.2-.4.4.2.4.4.4.4-.2.4-.4ZM20.2,6.9c0-.2-.2-.4-.4-.4s-.4.2-.4.4.2.4.4.4.4-.2.4-.4ZM22.3,6.9c0-.2-.2-.4-.4-.4s-.4.2-.4.4.2.4.4.4.4-.2.4-.4ZM24.4,6.9c0-.2-.2-.4-.4-.4s-.4.2-.4.4.2.4.4.4.4-.2.4-.4ZM26.6,6.9c0-.2-.2-.4-.4-.4s-.4.2-.4.4.2.4.4.4.4-.2.4-.4ZM28.7,6.9c0-.2-.2-.4-.4-.4s-.4.2-.4.4.2.4.4.4.4-.2.4-.4ZM30.8,6.9c0-.2-.2-.4-.4-.4s-.4.2-.4.4.2.4.4.4.4-.2.4-.4ZM9.5,8c0-.2-.2-.4-.4-.4s-.4.2-.4.4.2.4.4.4.4-.2.4-.4ZM12.7,8c0-.2-.2-.4-.4-.4s-.4.2-.4.4.2.4.4.4.4-.2.4-.4ZM15.9,8c0-.2-.2-.4-.4-.4s-.4.2-.4.4.2.4.4.4.4-.2.4-.4ZM17,8c0-.2-.2-.4-.4-.4s-.4.2-.4.4.2.4.4.4.4-.2.4-.4ZM18,8c0-.2-.2-.4-.4-.4s-.4.2-.4.4.2.4.4.4.4-.2.4-.4ZM19.1,8c0-.2-.2-.4-.4-.4s-.4.2-.4.4.2.4.4.4.4-.2.4-.4ZM20.2,8c0-.2-.2-.4-.4-.4s-.4.2-.4.4.2.4.4.4.4-.2.4-.4ZM24.4,8c0-.2-.2-.4-.4-.4s-.4.2-.4.4.2.4.4.4.4-.2.4-.4ZM26.6,8c0-.2-.2-.4-.4-.4s-.4.2-.4.4.2.4.4.4.4-.2.4-.4ZM28.7,8c0-.2-.2-.4-.4-.4s-.4.2-.4.4.2.4.4.4.4-.2.4-.4ZM29.8,8c0-.2-.2-.4-.4-.4s-.4.2-.4.4.2.4.4.4.4-.2.4-.4ZM1,9.1c0-.2-.2-.4-.4-.4s-.4.2-.4.4.2.4.4.4.4-.2.4-.4ZM5.2,9.1c0-.2-.2-.4-.4-.4s-.4.2-.4.4.2.4.4.4.4-.2.4-.4ZM7.4,9.1c0-.2-.2-.4-.4-.4s-.4.2-.4.4.2.4.4.4.4-.2.4-.4ZM8.4,9.1c0-.2-.2-.4-.4-.4s-.4.2-.4.4.2.4.4.4.4-.2.4-.4ZM9.5,9.1c0-.2-.2-.4-.4-.4s-.4.2-.4.4.2.4.4.4.4-.2.4-.4ZM10.6,9.1c0-.2-.2-.4-.4-.4s-.4.2-.4.4.2.4.4.4.4-.2.4-.4ZM11.6,9.1c0-.2-.2-.4-.4-.4s-.4.2-.4.4.2.4.4.4.4-.2.4-.4ZM14.8,9.1c0-.2-.2-.4-.4-.4s-.4.2-.4.4.2.4.4.4.4-.2.4-.4ZM15.9,9.1c0-.2-.2-.4-.4-.4s-.4.2-.4.4.2.4.4.4.4-.2.4-.4ZM20.2,9.1c0-.2-.2-.4-.4-.4s-.4.2-.4.4.2.4.4.4.4-.2.4-.4ZM21.2,9.1c0-.2-.2-.4-.4-.4s-.4.2-.4.4.2.4.4.4.4-.2.4-.4ZM24.4,9.1c0-.2-.2-.4-.4-.4s-.4.2-.4.4.2.4.4.4.4-.2.4-.4ZM25.5,9.1c0-.2-.2-.4-.4-.4s-.4.2-.4.4.2.4.4.4.4-.2.4-.4ZM26.6,9.1c0-.2-.2-.4-.4-.4s-.4.2-.4.4.2.4.4.4.4-.2.4-.4ZM27.6,9.1c0-.2-.2-.4-.4-.4s-.4.2-.4.4.2.4.4.4.4-.2.4-.4ZM28.7,9.1c0-.2-.2-.4-.4-.4s-.4.2-.4.4.2.4.4.4.4-.2.4-.4ZM29.8,9.1c0-.2-.2-.4-.4-.4s-.4.2-.4.4.2.4.4.4.4-.2.4-.4ZM30.8,9.1c0-.2-.2-.4-.4-.4s-.4.2-.4.4.2.4.4.4.4-.2.4-.4ZM31.9,9.1c0-.2-.2-.4-.4-.4s-.4.2-.4.4.2.4.4.4.4-.2.4-.4ZM33,9.1c0-.2-.2-.4-.4-.4s-.4.2-.4.4.2.4.4.4.4-.2.4-.4ZM34,9.1c0-.2-.2-.4-.4-.4s-.4.2-.4.4.2.4.4.4.4-.2.4-.4ZM35.1,9.1c0-.2-.2-.4-.4-.4s-.4.2-.4.4.2.4.4.4.4-.2.4-.4ZM36.2,9.1c0-.2-.2-.4-.4-.4s-.4.2-.4.4.2.4.4.4.4-.2.4-.4ZM39.4,9.1c0-.2-.2-.4-.4-.4s-.4.2-.4.4.2.4.4.4.4-.2.4-.4ZM2,10.1c0-.2-.2-.4-.4-.4s-.4.2-.4.4.2.4.4.4.4-.2.4-.4ZM3.1,10.1c0-.2-.2-.4-.4-.4s-.4.2-.4.4.2.4.4.4.4-.2.4-.4ZM4.2,10.1c0-.2-.2-.4-.4-.4s-.4.2-.4.4.2.4.4.4.4-.2.4-.4ZM5.2,10.1c0-.2-.2-.4-.4-.4s-.4.2-.4.4.2.4.4.4.4-.2.4-.4ZM6.3,10.1c0-.2-.2-.4-.4-.4s-.4.2-.4.4.2.4.4.4.4-.2.4-.4ZM8.4,10.1c0-.2-.2-.4-.4-.4s-.4.2-.4.4.2.4.4.4.4-.2.4-.4ZM13.8,10.1c0-.2-.2-.4-.4-.4s-.4.2-.4.4.2.4.4.4.4-.2.4-.4ZM14.8,10.1c0-.2-.2-.4-.4-.4s-.4.2-.4.4.2.4.4.4.4-.2.4-.4ZM15.9,10.1c0-.2-.2-.4-.4-.4s-.4.2-.4.4.2.4.4.4.4-.2.4-.4ZM18,10.1c0-.2-.2-.4-.4-.4s-.4.2-.4.4.2.4.4.4.4-.2.4-.4ZM21.2,10.1c0-.2-.2-.4-.4-.4s-.4.2-.4.4.2.4.4.4.4-.2.4-.4ZM22.3,10.1c0-.2-.2-.4-.4-.4s-.4.2-.4.4.2.4.4.4.4-.2.4-.4ZM23.4,10.1c0-.2-.2-.4-.4-.4s-.4.2-.4.4.2.4.4.4.4-.2.4-.4ZM27.6,10.1c0-.2-.2-.4-.4-.4s-.4.2-.4.4.2.4.4.4.4-.2.4-.4ZM31.9,10.1c0-.2-.2-.4-.4-.4s-.4.2-.4.4.2.4.4.4.4-.2.4-.4ZM33,10.1c0-.2-.2-.4-.4-.4s-.4.2-.4.4.2.4.4.4.4-.2.4-.4ZM34,10.1c0-.2-.2-.4-.4-.4s-.4.2-.4.4.2.4.4.4.4-.2.4-.4ZM35.1,10.1c0-.2-.2-.4-.4-.4s-.4.2-.4.4.2.4.4.4.4-.2.4-.4ZM38.3,10.1c0-.2-.2-.4-.4-.4s-.4.2-.4.4.2.4.4.4.4-.2.4-.4ZM1,11.2c0-.2-.2-.4-.4-.4s-.4.2-.4.4.2.4.4.4.4-.2.4-.4ZM3.1,11.2c0-.2-.2-.4-.4-.4s-.4.2-.4.4.2.4.4.4.4-.2.4-.4ZM5.2,11.2c0-.2-.2-.4-.4-.4s-.4.2-.4.4.2.4.4.4.4-.2.4-.4ZM7.4,11.2c0-.2-.2-.4-.4-.4s-.4.2-.4.4.2.4.4.4.4-.2.4-.4ZM8.4,11.2c0-.2-.2-.4-.4-.4s-.4.2-.4.4.2.4.4.4.4-.2.4-.4ZM9.5,11.2c0-.2-.2-.4-.4-.4s-.4.2-.4.4.2.4.4.4.4-.2.4-.4ZM10.6,11.2c0-.2-.2-.4-.4-.4s-.4.2-.4.4.2.4.4.4.4-.2.4-.4ZM11.6,11.2c0-.2-.2-.4-.4-.4s-.4.2-.4.4.2.4.4.4.4-.2.4-.4ZM12.7,11.2c0-.2-.2-.4-.4-.4s-.4.2-.4.4.2.4.4.4.4-.2.4-.4ZM13.8,11.2c0-.2-.2-.4-.4-.4s-.4.2-.4.4.2.4.4.4.4-.2.4-.4ZM18,11.2c0-.2-.2-.4-.4-.4s-.4.2-.4.4.2.4.4.4.4-.2.4-.4ZM19.1,11.2c0-.2-.2-.4-.4-.4s-.4.2-.4.4.2.4.4.4.4-.2.4-.4ZM22.3,11.2c0-.2-.2-.4-.4-.4s-.4.2-.4.4.2.4.4.4.4-.2.4-.4ZM28.7,11.2c0-.2-.2-.4-.4-.4s-.4.2-.4.4.2.4.4.4.4-.2.4-.4ZM29.8,11.2c0-.2-.2-.4-.4-.4s-.4.2-.4.4.2.4.4.4.4-.2.4-.4ZM34,11.2c0-.2-.2-.4-.4-.4s-.4.2-.4.4.2.4.4.4.4-.2.4-.4ZM37.2,11.2c0-.2-.2-.4-.4-.4s-.4.2-.4.4.2.4.4.4.4-.2.4-.4ZM6.3,12.3c0-.2-.2-.4-.4-.4s-.4.2-.4.4.2.4.4.4.4-.2.4-.4ZM8.4,12.3c0-.2-.2-.4-.4-.4s-.4.2-.4.4.2.4.4.4.4-.2.4-.4ZM12.7,12.3c0-.2-.2-.4-.4-.4s-.4.2-.4.4.2.4.4.4.4-.2.4-.4ZM13.8,12.3c0-.2-.2-.4-.4-.4s-.4.2-.4.4.2.4.4.4.4-.2.4-.4ZM19.1,12.3c0-.2-.2-.4-.4-.4s-.4.2-.4.4.2.4.4.4.4-.2.4-.4ZM20.2,12.3c0-.2-.2-.4-.4-.4s-.4.2-.4.4.2.4.4.4.4-.2.4-.4ZM24.4,12.3c0-.2-.2-.4-.4-.4s-.4.2-.4.4.2.4.4.4.4-.2.4-.4ZM26.6,12.3c0-.2-.2-.4-.4-.4s-.4.2-.4.4.2.4.4.4.4-.2.4-.4ZM29.8,12.3c0-.2-.2-.4-.4-.4s-.4.2-.4.4.2.4.4.4.4-.2.4-.4ZM30.8,12.3c0-.2-.2-.4-.4-.4s-.4.2-.4.4.2.4.4.4.4-.2.4-.4ZM33,12.3c0-.2-.2-.4-.4-.4s-.4.2-.4.4.2.4.4.4.4-.2.4-.4ZM36.2,12.3c0-.2-.2-.4-.4-.4s-.4.2-.4.4.2.4.4.4.4-.2.4-.4ZM37.2,12.3c0-.2-.2-.4-.4-.4s-.4.2-.4.4.2.4.4.4.4-.2.4-.4ZM38.3,12.3c0-.2-.2-.4-.4-.4s-.4.2-.4.4.2.4.4.4.4-.2.4-.4ZM4.2,13.3c0-.2-.2-.4-.4-.4s-.4.2-.4.4.2.4.4.4.4-.2.4-.4ZM7.4,13.3c0-.2-.2-.4-.4-.4s-.4.2-.4.4.2.4.4.4.4-.2.4-.4ZM8.4,13.3c0-.2-.2-.4-.4-.4s-.4.2-.4.4.2.4.4.4.4-.2.4-.4ZM9.5,13.3c0-.2-.2-.4-.4-.4s-.4.2-.4.4.2.4.4.4.4-.2.4-.4ZM10.6,13.3c0-.2-.2-.4-.4-.4s-.4.2-.4.4.2.4.4.4.4-.2.4-.4ZM12.7,13.3c0-.2-.2-.4-.4-.4s-.4.2-.4.4.2.4.4.4.4-.2.4-.4ZM14.8,13.3c0-.2-.2-.4-.4-.4s-.4.2-.4.4.2.4.4.4.4-.2.4-.4ZM15.9,13.3c0-.2-.2-.4-.4-.4s-.4.2-.4.4.2.4.4.4.4-.2.4-.4ZM17,13.3c0-.2-.2-.4-.4-.4s-.4.2-.4.4.2.4.4.4.4-.2.4-.4ZM18,13.3c0-.2-.2-.4-.4-.4s-.4.2-.4.4.2.4.4.4.4-.2.4-.4ZM20.2,13.3c0-.2-.2-.4-.4-.4s-.4.2-.4.4.2.4.4.4.4-.2.4-.4ZM21.2,13.3c0-.2-.2-.4-.4-.4s-.4.2-.4.4.2.4.4.4.4-.2.4-.4ZM22.3,13.3c0-.2-.2-.4-.4-.4s-.4.2-.4.4.2.4.4.4.4-.2.4-.4ZM24.4,13.3c0-.2-.2-.4-.4-.4s-.4.2-.4.4.2.4.4.4.4-.2.4-.4ZM25.5,13.3c0-.2-.2-.4-.4-.4s-.4.2-.4.4.2.4.4.4.4-.2.4-.4ZM26.6,13.3c0-.2-.2-.4-.4-.4s-.4.2-.4.4.2.4.4.4.4-.2.4-.4ZM31.9,13.3c0-.2-.2-.4-.4-.4s-.4.2-.4.4.2.4.4.4.4-.2.4-.4ZM33,13.3c0-.2-.2-.4-.4-.4s-.4.2-.4.4.2.4.4.4.4-.2.4-.4ZM36.2,13.3c0-.2-.2-.4-.4-.4s-.4.2-.4.4.2.4.4.4.4-.2.4-.4ZM38.3,13.3c0-.2-.2-.4-.4-.4s-.4.2-.4.4.2.4.4.4.4-.2.4-.4ZM39.4,13.3c0-.2-.2-.4-.4-.4s-.4.2-.4.4.2.4.4.4.4-.2.4-.4ZM1,14.4c0-.2-.2-.4-.4-.4s-.4.2-.4.4.2.4.4.4.4-.2.4-.4ZM2,14.4c0-.2-.2-.4-.4-.4s-.4.2-.4.4.2.4.4.4.4-.2.4-.4ZM5.2,14.4c0-.2-.2-.4-.4-.4s-.4.2-.4.4.2.4.4.4.4-.2.4-.4ZM6.3,14.4c0-.2-.2-.4-.4-.4s-.4.2-.4.4.2.4.4.4.4-.2.4-.4ZM8.4,14.4c0-.2-.2-.4-.4-.4s-.4.2-.4.4.2.4.4.4.4-.2.4-.4ZM9.5,14.4c0-.2-.2-.4-.4-.4s-.4.2-.4.4.2.4.4.4.4-.2.4-.4ZM10.6,14.4c0-.2-.2-.4-.4-.4s-.4.2-.4.4.2.4.4.4.4-.2.4-.4ZM11.6,14.4c0-.2-.2-.4-.4-.4s-.4.2-.4.4.2.4.4.4.4-.2.4-.4ZM26.6,14.4c0-.2-.2-.4-.4-.4s-.4.2-.4.4.2.4.4.4.4-.2.4-.4ZM28.7,14.4c0-.2-.2-.4-.4-.4s-.4.2-.4.4.2.4.4.4.4-.2.4-.4ZM29.8,14.4c0-.2-.2-.4-.4-.4s-.4.2-.4.4.2.4.4.4.4-.2.4-.4ZM30.8,14.4c0-.2-.2-.4-.4-.4s-.4.2-.4.4.2.4.4.4.4-.2.4-.4ZM31.9,14.4c0-.2-.2-.4-.4-.4s-.4.2-.4.4.2.4.4.4.4-.2.4-.4ZM35.1,14.4c0-.2-.2-.4-.4-.4s-.4.2-.4.4.2.4.4.4.4-.2.4-.4ZM36.2,14.4c0-.2-.2-.4-.4-.4s-.4.2-.4.4.2.4.4.4.4-.2.4-.4ZM39.4,14.4c0-.2-.2-.4-.4-.4s-.4.2-.4.4.2.4.4.4.4-.2.4-.4ZM2,15.5c0-.2-.2-.4-.4-.4s-.4.2-.4.4.2.4.4.4.4-.2.4-.4ZM4.2,15.5c0-.2-.2-.4-.4-.4s-.4.2-.4.4.2.4.4.4.4-.2.4-.4ZM5.2,15.5c0-.2-.2-.4-.4-.4s-.4.2-.4.4.2.4.4.4.4-.2.4-.4ZM6.3,15.5c0-.2-.2-.4-.4-.4s-.4.2-.4.4.2.4.4.4.4-.2.4-.4ZM7.4,15.5c0-.2-.2-.4-.4-.4s-.4.2-.4.4.2.4.4.4.4-.2.4-.4ZM9.5,15.5c0-.2-.2-.4-.4-.4s-.4.2-.4.4.2.4.4.4.4-.2.4-.4ZM12.7,15.5c0-.2-.2-.4-.4-.4s-.4.2-.4.4.2.4.4.4.4-.2.4-.4ZM13.8,15.5c0-.2-.2-.4-.4-.4s-.4.2-.4.4.2.4.4.4.4-.2.4-.4ZM14.8,15.5c0-.2-.2-.4-.4-.4s-.4.2-.4.4.2.4.4.4.4-.2.4-.4ZM25.5,15.5c0-.2-.2-.4-.4-.4s-.4.2-.4.4.2.4.4.4.4-.2.4-.4ZM26.6,15.5c0-.2-.2-.4-.4-.4s-.4.2-.4.4.2.4.4.4.4-.2.4-.4ZM27.6,15.5c0-.2-.2-.4-.4-.4s-.4.2-.4.4.2.4.4.4.4-.2.4-.4ZM28.7,15.5c0-.2-.2-.4-.4-.4s-.4.2-.4.4.2.4.4.4.4-.2.4-.4ZM29.8,15.5c0-.2-.2-.4-.4-.4s-.4.2-.4.4.2.4.4.4.4-.2.4-.4ZM33,15.5c0-.2-.2-.4-.4-.4s-.4.2-.4.4.2.4.4.4.4-.2.4-.4ZM34,15.5c0-.2-.2-.4-.4-.4s-.4.2-.4.4.2.4.4.4.4-.2.4-.4ZM35.1,15.5c0-.2-.2-.4-.4-.4s-.4.2-.4.4.2.4.4.4.4-.2.4-.4ZM36.2,15.5c0-.2-.2-.4-.4-.4s-.4.2-.4.4.2.4.4.4.4-.2.4-.4ZM37.2,15.5c0-.2-.2-.4-.4-.4s-.4.2-.4.4.2.4.4.4.4-.2.4-.4ZM39.4,15.5c0-.2-.2-.4-.4-.4s-.4.2-.4.4.2.4.4.4.4-.2.4-.4ZM1,16.5c0-.2-.2-.4-.4-.4s-.4.2-.4.4.2.4.4.4.4-.2.4-.4ZM2,16.5c0-.2-.2-.4-.4-.4s-.4.2-.4.4.2.4.4.4.4-.2.4-.4ZM4.2,16.5c0-.2-.2-.4-.4-.4s-.4.2-.4.4.2.4.4.4.4-.2.4-.4ZM5.2,16.5c0-.2-.2-.4-.4-.4s-.4.2-.4.4.2.4.4.4.4-.2.4-.4ZM9.5,16.5c0-.2-.2-.4-.4-.4s-.4.2-.4.4.2.4.4.4.4-.2.4-.4ZM10.6,16.5c0-.2-.2-.4-.4-.4s-.4.2-.4.4.2.4.4.4.4-.2.4-.4ZM11.6,16.5c0-.2-.2-.4-.4-.4s-.4.2-.4.4.2.4.4.4.4-.2.4-.4ZM13.8,16.5c0-.2-.2-.4-.4-.4s-.4.2-.4.4.2.4.4.4.4-.2.4-.4ZM26.6,16.5c0-.2-.2-.4-.4-.4s-.4.2-.4.4.2.4.4.4.4-.2.4-.4ZM27.6,16.5c0-.2-.2-.4-.4-.4s-.4.2-.4.4.2.4.4.4.4-.2.4-.4ZM29.8,16.5c0-.2-.2-.4-.4-.4s-.4.2-.4.4.2.4.4.4.4-.2.4-.4ZM31.9,16.5c0-.2-.2-.4-.4-.4s-.4.2-.4.4.2.4.4.4.4-.2.4-.4ZM33,16.5c0-.2-.2-.4-.4-.4s-.4.2-.4.4.2.4.4.4.4-.2.4-.4ZM34,16.5c0-.2-.2-.4-.4-.4s-.4.2-.4.4.2.4.4.4.4-.2.4-.4ZM35.1,16.5c0-.2-.2-.4-.4-.4s-.4.2-.4.4.2.4.4.4.4-.2.4-.4ZM37.2,16.5c0-.2-.2-.4-.4-.4s-.4.2-.4.4.2.4.4.4.4-.2.4-.4ZM38.3,16.5c0-.2-.2-.4-.4-.4s-.4.2-.4.4.2.4.4.4.4-.2.4-.4ZM39.4,16.5c0-.2-.2-.4-.4-.4s-.4.2-.4.4.2.4.4.4.4-.2.4-.4ZM3.1,17.6c0-.2-.2-.4-.4-.4s-.4.2-.4.4.2.4.4.4.4-.2.4-.4ZM4.2,17.6c0-.2-.2-.4-.4-.4s-.4.2-.4.4.2.4.4.4.4-.2.4-.4ZM6.3,17.6c0-.2-.2-.4-.4-.4s-.4.2-.4.4.2.4.4.4.4-.2.4-.4ZM7.4,17.6c0-.2-.2-.4-.4-.4s-.4.2-.4.4.2.4.4.4.4-.2.4-.4ZM9.5,17.6c0-.2-.2-.4-.4-.4s-.4.2-.4.4.2.4.4.4.4-.2.4-.4ZM10.6,17.6c0-.2-.2-.4-.4-.4s-.4.2-.4.4.2.4.4.4.4-.2.4-.4ZM11.6,17.6c0-.2-.2-.4-.4-.4s-.4.2-.4.4.2.4.4.4.4-.2.4-.4ZM13.8,17.6c0-.2-.2-.4-.4-.4s-.4.2-.4.4.2.4.4.4.4-.2.4-.4ZM14.8,17.6c0-.2-.2-.4-.4-.4s-.4.2-.4.4.2.4.4.4.4-.2.4-.4ZM25.5,17.6c0-.2-.2-.4-.4-.4s-.4.2-.4.4.2.4.4.4.4-.2.4-.4ZM27.6,17.6c0-.2-.2-.4-.4-.4s-.4.2-.4.4.2.4.4.4.4-.2.4-.4ZM31.9,17.6c0-.2-.2-.4-.4-.4s-.4.2-.4.4.2.4.4.4.4-.2.4-.4ZM34,17.6c0-.2-.2-.4-.4-.4s-.4.2-.4.4.2.4.4.4.4-.2.4-.4ZM35.1,17.6c0-.2-.2-.4-.4-.4s-.4.2-.4.4.2.4.4.4.4-.2.4-.4ZM36.2,17.6c0-.2-.2-.4-.4-.4s-.4.2-.4.4.2.4.4.4.4-.2.4-.4ZM37.2,17.6c0-.2-.2-.4-.4-.4s-.4.2-.4.4.2.4.4.4.4-.2.4-.4ZM38.3,17.6c0-.2-.2-.4-.4-.4s-.4.2-.4.4.2.4.4.4.4-.2.4-.4ZM1,18.7c0-.2-.2-.4-.4-.4s-.4.2-.4.4.2.4.4.4.4-.2.4-.4ZM2,18.7c0-.2-.2-.4-.4-.4s-.4.2-.4.4.2.4.4.4.4-.2.4-.4ZM3.1,18.7c0-.2-.2-.4-.4-.4s-.4.2-.4.4.2.4.4.4.4-.2.4-.4ZM5.2,18.7c0-.2-.2-.4-.4-.4s-.4.2-.4.4.2.4.4.4.4-.2.4-.4ZM8.4,18.7c0-.2-.2-.4-.4-.4s-.4.2-.4.4.2.4.4.4.4-.2.4-.4ZM26.6,18.7c0-.2-.2-.4-.4-.4s-.4.2-.4.4.2.4.4.4.4-.2.4-.4ZM27.6,18.7c0-.2-.2-.4-.4-.4s-.4.2-.4.4.2.4.4.4.4-.2.4-.4ZM28.7,18.7c0-.2-.2-.4-.4-.4s-.4.2-.4.4.2.4.4.4.4-.2.4-.4ZM30.8,18.7c0-.2-.2-.4-.4-.4s-.4.2-.4.4.2.4.4.4.4-.2.4-.4ZM33,18.7c0-.2-.2-.4-.4-.4s-.4.2-.4.4.2.4.4.4.4-.2.4-.4ZM36.2,18.7c0-.2-.2-.4-.4-.4s-.4.2-.4.4.2.4.4.4.4-.2.4-.4ZM37.2,18.7c0-.2-.2-.4-.4-.4s-.4.2-.4.4.2.4.4.4.4-.2.4-.4ZM38.3,18.7c0-.2-.2-.4-.4-.4s-.4.2-.4.4.2.4.4.4.4-.2.4-.4ZM2,19.7c0-.2-.2-.4-.4-.4s-.4.2-.4.4.2.4.4.4.4-.2.4-.4ZM4.2,19.7c0-.2-.2-.4-.4-.4s-.4.2-.4.4.2.4.4.4.4-.2.4-.4ZM7.4,19.7c0-.2-.2-.4-.4-.4s-.4.2-.4.4.2.4.4.4.4-.2.4-.4ZM9.5,19.7c0-.2-.2-.4-.4-.4s-.4.2-.4.4.2.4.4.4.4-.2.4-.4ZM10.6,19.7c0-.2-.2-.4-.4-.4s-.4.2-.4.4.2.4.4.4.4-.2.4-.4ZM11.6,19.7c0-.2-.2-.4-.4-.4s-.4.2-.4.4.2.4.4.4.4-.2.4-.4ZM12.7,19.7c0-.2-.2-.4-.4-.4s-.4.2-.4.4.2.4.4.4.4-.2.4-.4ZM13.8,19.7c0-.2-.2-.4-.4-.4s-.4.2-.4.4.2.4.4.4.4-.2.4-.4ZM14.8,19.7c0-.2-.2-.4-.4-.4s-.4.2-.4.4.2.4.4.4.4-.2.4-.4ZM25.5,19.7c0-.2-.2-.4-.4-.4s-.4.2-.4.4.2.4.4.4.4-.2.4-.4ZM26.6,19.7c0-.2-.2-.4-.4-.4s-.4.2-.4.4.2.4.4.4.4-.2.4-.4ZM28.7,19.7c0-.2-.2-.4-.4-.4s-.4.2-.4.4.2.4.4.4.4-.2.4-.4ZM30.8,19.7c0-.2-.2-.4-.4-.4s-.4.2-.4.4.2.4.4.4.4-.2.4-.4ZM35.1,19.7c0-.2-.2-.4-.4-.4s-.4.2-.4.4.2.4.4.4.4-.2.4-.4ZM36.2,19.7c0-.2-.2-.4-.4-.4s-.4.2-.4.4.2.4.4.4.4-.2.4-.4ZM1,20.8c0-.2-.2-.4-.4-.4s-.4.2-.4.4.2.4.4.4.4-.2.4-.4ZM4.2,20.8c0-.2-.2-.4-.4-.4s-.4.2-.4.4.2.4.4.4.4-.2.4-.4ZM5.2,20.8c0-.2-.2-.4-.4-.4s-.4.2-.4.4.2.4.4.4.4-.2.4-.4ZM6.3,20.8c0-.2-.2-.4-.4-.4s-.4.2-.4.4.2.4.4.4.4-.2.4-.4ZM11.6,20.8c0-.2-.2-.4-.4-.4s-.4.2-.4.4.2.4.4.4.4-.2.4-.4ZM25.5,20.8c0-.2-.2-.4-.4-.4s-.4.2-.4.4.2.4.4.4.4-.2.4-.4ZM28.7,20.8c0-.2-.2-.4-.4-.4s-.4.2-.4.4.2.4.4.4.4-.2.4-.4ZM33,20.8c0-.2-.2-.4-.4-.4s-.4.2-.4.4.2.4.4.4.4-.2.4-.4ZM34,20.8c0-.2-.2-.4-.4-.4s-.4.2-.4.4.2.4.4.4.4-.2.4-.4ZM35.1,20.8c0-.2-.2-.4-.4-.4s-.4.2-.4.4.2.4.4.4.4-.2.4-.4ZM38.3,20.8c0-.2-.2-.4-.4-.4s-.4.2-.4.4.2.4.4.4.4-.2.4-.4ZM2,21.9c0-.2-.2-.4-.4-.4s-.4.2-.4.4.2.4.4.4.4-.2.4-.4ZM3.1,21.9c0-.2-.2-.4-.4-.4s-.4.2-.4.4.2.4.4.4.4-.2.4-.4ZM4.2,21.9c0-.2-.2-.4-.4-.4s-.4.2-.4.4.2.4.4.4.4-.2.4-.4ZM6.3,21.9c0-.2-.2-.4-.4-.4s-.4.2-.4.4.2.4.4.4.4-.2.4-.4ZM7.4,21.9c0-.2-.2-.4-.4-.4s-.4.2-.4.4.2.4.4.4.4-.2.4-.4ZM12.7,21.9c0-.2-.2-.4-.4-.4s-.4.2-.4.4.2.4.4.4.4-.2.4-.4ZM13.8,21.9c0-.2-.2-.4-.4-.4s-.4.2-.4.4.2.4.4.4.4-.2.4-.4ZM26.6,21.9c0-.2-.2-.4-.4-.4s-.4.2-.4.4.2.4.4.4.4-.2.4-.4ZM29.8,21.9c0-.2-.2-.4-.4-.4s-.4.2-.4.4.2.4.4.4.4-.2.4-.4ZM31.9,21.9c0-.2-.2-.4-.4-.4s-.4.2-.4.4.2.4.4.4.4-.2.4-.4ZM33,21.9c0-.2-.2-.4-.4-.4s-.4.2-.4.4.2.4.4.4.4-.2.4-.4ZM34,21.9c0-.2-.2-.4-.4-.4s-.4.2-.4.4.2.4.4.4.4-.2.4-.4ZM2,22.9c0-.2-.2-.4-.4-.4s-.4.2-.4.4.2.4.4.4.4-.2.4-.4ZM3.1,22.9c0-.2-.2-.4-.4-.4s-.4.2-.4.4.2.4.4.4.4-.2.4-.4ZM4.2,22.9c0-.2-.2-.4-.4-.4s-.4.2-.4.4.2.4.4.4.4-.2.4-.4ZM5.2,22.9c0-.2-.2-.4-.4-.4s-.4.2-.4.4.2.4.4.4.4-.2.4-.4ZM11.6,22.9c0-.2-.2-.4-.4-.4s-.4.2-.4.4.2.4.4.4.4-.2.4-.4ZM12.7,22.9c0-.2-.2-.4-.4-.4s-.4.2-.4.4.2.4.4.4.4-.2.4-.4ZM13.8,22.9c0-.2-.2-.4-.4-.4s-.4.2-.4.4.2.4.4.4.4-.2.4-.4ZM25.5,22.9c0-.2-.2-.4-.4-.4s-.4.2-.4.4.2.4.4.4.4-.2.4-.4ZM26.6,22.9c0-.2-.2-.4-.4-.4s-.4.2-.4.4.2.4.4.4.4-.2.4-.4ZM27.6,22.9c0-.2-.2-.4-.4-.4s-.4.2-.4.4.2.4.4.4.4-.2.4-.4ZM29.8,22.9c0-.2-.2-.4-.4-.4s-.4.2-.4.4.2.4.4.4.4-.2.4-.4ZM30.8,22.9c0-.2-.2-.4-.4-.4s-.4.2-.4.4.2.4.4.4.4-.2.4-.4ZM31.9,22.9c0-.2-.2-.4-.4-.4s-.4.2-.4.4.2.4.4.4.4-.2.4-.4ZM34,22.9c0-.2-.2-.4-.4-.4s-.4.2-.4.4.2.4.4.4.4-.2.4-.4ZM35.1,22.9c0-.2-.2-.4-.4-.4s-.4.2-.4.4.2.4.4.4.4-.2.4-.4ZM38.3,22.9c0-.2-.2-.4-.4-.4s-.4.2-.4.4.2.4.4.4.4-.2.4-.4ZM39.4,22.9c0-.2-.2-.4-.4-.4s-.4.2-.4.4.2.4.4.4.4-.2.4-.4ZM1,24c0-.2-.2-.4-.4-.4s-.4.2-.4.4.2.4.4.4.4-.2.4-.4ZM3.1,24c0-.2-.2-.4-.4-.4s-.4.2-.4.4.2.4.4.4.4-.2.4-.4ZM4.2,24c0-.2-.2-.4-.4-.4s-.4.2-.4.4.2.4.4.4.4-.2.4-.4ZM6.3,24c0-.2-.2-.4-.4-.4s-.4.2-.4.4.2.4.4.4.4-.2.4-.4ZM7.4,24c0-.2-.2-.4-.4-.4s-.4.2-.4.4.2.4.4.4.4-.2.4-.4ZM10.6,24c0-.2-.2-.4-.4-.4s-.4.2-.4.4.2.4.4.4.4-.2.4-.4ZM11.6,24c0-.2-.2-.4-.4-.4s-.4.2-.4.4.2.4.4.4.4-.2.4-.4ZM25.5,24c0-.2-.2-.4-.4-.4s-.4.2-.4.4.2.4.4.4.4-.2.4-.4ZM26.6,24c0-.2-.2-.4-.4-.4s-.4.2-.4.4.2.4.4.4.4-.2.4-.4ZM29.8,24c0-.2-.2-.4-.4-.4s-.4.2-.4.4.2.4.4.4.4-.2.4-.4ZM30.8,24c0-.2-.2-.4-.4-.4s-.4.2-.4.4.2.4.4.4.4-.2.4-.4ZM31.9,24c0-.2-.2-.4-.4-.4s-.4.2-.4.4.2.4.4.4.4-.2.4-.4ZM34,24c0-.2-.2-.4-.4-.4s-.4.2-.4.4.2.4.4.4.4-.2.4-.4ZM35.1,24c0-.2-.2-.4-.4-.4s-.4.2-.4.4.2.4.4.4.4-.2.4-.4ZM36.2,24c0-.2-.2-.4-.4-.4s-.4.2-.4.4.2.4.4.4.4-.2.4-.4ZM37.2,24c0-.2-.2-.4-.4-.4s-.4.2-.4.4.2.4.4.4.4-.2.4-.4ZM38.3,24c0-.2-.2-.4-.4-.4s-.4.2-.4.4.2.4.4.4.4-.2.4-.4ZM2,25.1c0-.2-.2-.4-.4-.4s-.4.2-.4.4.2.4.4.4.4-.2.4-.4ZM3.1,25.1c0-.2-.2-.4-.4-.4s-.4.2-.4.4.2.4.4.4.4-.2.4-.4ZM6.3,25.1c0-.2-.2-.4-.4-.4s-.4.2-.4.4.2.4.4.4.4-.2.4-.4ZM12.7,25.1c0-.2-.2-.4-.4-.4s-.4.2-.4.4.2.4.4.4.4-.2.4-.4ZM14.8,25.1c0-.2-.2-.4-.4-.4s-.4.2-.4.4.2.4.4.4.4-.2.4-.4ZM26.6,25.1c0-.2-.2-.4-.4-.4s-.4.2-.4.4.2.4.4.4.4-.2.4-.4ZM28.7,25.1c0-.2-.2-.4-.4-.4s-.4.2-.4.4.2.4.4.4.4-.2.4-.4ZM29.8,25.1c0-.2-.2-.4-.4-.4s-.4.2-.4.4.2.4.4.4.4-.2.4-.4ZM34,25.1c0-.2-.2-.4-.4-.4s-.4.2-.4.4.2.4.4.4.4-.2.4-.4ZM35.1,25.1c0-.2-.2-.4-.4-.4s-.4.2-.4.4.2.4.4.4.4-.2.4-.4ZM37.2,25.1c0-.2-.2-.4-.4-.4s-.4.2-.4.4.2.4.4.4.4-.2.4-.4ZM2,26.1c0-.2-.2-.4-.4-.4s-.4.2-.4.4.2.4.4.4.4-.2.4-.4ZM7.4,26.1c0-.2-.2-.4-.4-.4s-.4.2-.4.4.2.4.4.4.4-.2.4-.4ZM9.5,26.1c0-.2-.2-.4-.4-.4s-.4.2-.4.4.2.4.4.4.4-.2.4-.4ZM12.7,26.1c0-.2-.2-.4-.4-.4s-.4.2-.4.4.2.4.4.4.4-.2.4-.4ZM13.8,26.1c0-.2-.2-.4-.4-.4s-.4.2-.4.4.2.4.4.4.4-.2.4-.4ZM15.9,26.1c0-.2-.2-.4-.4-.4s-.4.2-.4.4.2.4.4.4.4-.2.4-.4ZM17,26.1c0-.2-.2-.4-.4-.4s-.4.2-.4.4.2.4.4.4.4-.2.4-.4ZM20.2,26.1c0-.2-.2-.4-.4-.4s-.4.2-.4.4.2.4.4.4.4-.2.4-.4ZM21.2,26.1c0-.2-.2-.4-.4-.4s-.4.2-.4.4.2.4.4.4.4-.2.4-.4ZM24.4,26.1c0-.2-.2-.4-.4-.4s-.4.2-.4.4.2.4.4.4.4-.2.4-.4ZM25.5,26.1c0-.2-.2-.4-.4-.4s-.4.2-.4.4.2.4.4.4.4-.2.4-.4ZM26.6,26.1c0-.2-.2-.4-.4-.4s-.4.2-.4.4.2.4.4.4.4-.2.4-.4ZM27.6,26.1c0-.2-.2-.4-.4-.4s-.4.2-.4.4.2.4.4.4.4-.2.4-.4ZM28.7,26.1c0-.2-.2-.4-.4-.4s-.4.2-.4.4.2.4.4.4.4-.2.4-.4ZM30.8,26.1c0-.2-.2-.4-.4-.4s-.4.2-.4.4.2.4.4.4.4-.2.4-.4ZM33,26.1c0-.2-.2-.4-.4-.4s-.4.2-.4.4.2.4.4.4.4-.2.4-.4ZM35.1,26.1c0-.2-.2-.4-.4-.4s-.4.2-.4.4.2.4.4.4.4-.2.4-.4ZM36.2,26.1c0-.2-.2-.4-.4-.4s-.4.2-.4.4.2.4.4.4.4-.2.4-.4ZM37.2,26.1c0-.2-.2-.4-.4-.4s-.4.2-.4.4.2.4.4.4.4-.2.4-.4ZM39.4,26.1c0-.2-.2-.4-.4-.4s-.4.2-.4.4.2.4.4.4.4-.2.4-.4ZM1,27.2c0-.2-.2-.4-.4-.4s-.4.2-.4.4.2.4.4.4.4-.2.4-.4ZM8.4,27.2c0-.2-.2-.4-.4-.4s-.4.2-.4.4.2.4.4.4.4-.2.4-.4ZM9.5,27.2c0-.2-.2-.4-.4-.4s-.4.2-.4.4.2.4.4.4.4-.2.4-.4ZM12.7,27.2c0-.2-.2-.4-.4-.4s-.4.2-.4.4.2.4.4.4.4-.2.4-.4ZM14.8,27.2c0-.2-.2-.4-.4-.4s-.4.2-.4.4.2.4.4.4.4-.2.4-.4ZM15.9,27.2c0-.2-.2-.4-.4-.4s-.4.2-.4.4.2.4.4.4.4-.2.4-.4ZM18,27.2c0-.2-.2-.4-.4-.4s-.4.2-.4.4.2.4.4.4.4-.2.4-.4ZM21.2,27.2c0-.2-.2-.4-.4-.4s-.4.2-.4.4.2.4.4.4.4-.2.4-.4ZM22.3,27.2c0-.2-.2-.4-.4-.4s-.4.2-.4.4.2.4.4.4.4-.2.4-.4ZM23.4,27.2c0-.2-.2-.4-.4-.4s-.4.2-.4.4.2.4.4.4.4-.2.4-.4ZM27.6,27.2c0-.2-.2-.4-.4-.4s-.4.2-.4.4.2.4.4.4.4-.2.4-.4ZM31.9,27.2c0-.2-.2-.4-.4-.4s-.4.2-.4.4.2.4.4.4.4-.2.4-.4ZM33,27.2c0-.2-.2-.4-.4-.4s-.4.2-.4.4.2.4.4.4.4-.2.4-.4ZM34,27.2c0-.2-.2-.4-.4-.4s-.4.2-.4.4.2.4.4.4.4-.2.4-.4ZM35.1,27.2c0-.2-.2-.4-.4-.4s-.4.2-.4.4.2.4.4.4.4-.2.4-.4ZM5.2,28.3c0-.2-.2-.4-.4-.4s-.4.2-.4.4.2.4.4.4.4-.2.4-.4ZM6.3,28.3c0-.2-.2-.4-.4-.4s-.4.2-.4.4.2.4.4.4.4-.2.4-.4ZM7.4,28.3c0-.2-.2-.4-.4-.4s-.4.2-.4.4.2.4.4.4.4-.2.4-.4ZM10.6,28.3c0-.2-.2-.4-.4-.4s-.4.2-.4.4.2.4.4.4.4-.2.4-.4ZM14.8,28.3c0-.2-.2-.4-.4-.4s-.4.2-.4.4.2.4.4.4.4-.2.4-.4ZM18,28.3c0-.2-.2-.4-.4-.4s-.4.2-.4.4.2.4.4.4.4-.2.4-.4ZM19.1,28.3c0-.2-.2-.4-.4-.4s-.4.2-.4.4.2.4.4.4.4-.2.4-.4ZM22.3,28.3c0-.2-.2-.4-.4-.4s-.4.2-.4.4.2.4.4.4.4-.2.4-.4ZM27.6,28.3c0-.2-.2-.4-.4-.4s-.4.2-.4.4.2.4.4.4.4-.2.4-.4ZM28.7,28.3c0-.2-.2-.4-.4-.4s-.4.2-.4.4.2.4.4.4.4-.2.4-.4ZM29.8,28.3c0-.2-.2-.4-.4-.4s-.4.2-.4.4.2.4.4.4.4-.2.4-.4ZM34,28.3c0-.2-.2-.4-.4-.4s-.4.2-.4.4.2.4.4.4.4-.2.4-.4ZM37.2,28.3c0-.2-.2-.4-.4-.4s-.4.2-.4.4.2.4.4.4.4-.2.4-.4ZM3.1,29.3c0-.2-.2-.4-.4-.4s-.4.2-.4.4.2.4.4.4.4-.2.4-.4ZM4.2,29.3c0-.2-.2-.4-.4-.4s-.4.2-.4.4.2.4.4.4.4-.2.4-.4ZM6.3,29.3c0-.2-.2-.4-.4-.4s-.4.2-.4.4.2.4.4.4.4-.2.4-.4ZM8.4,29.3c0-.2-.2-.4-.4-.4s-.4.2-.4.4.2.4.4.4.4-.2.4-.4ZM11.6,29.3c0-.2-.2-.4-.4-.4s-.4.2-.4.4.2.4.4.4.4-.2.4-.4ZM12.7,29.3c0-.2-.2-.4-.4-.4s-.4.2-.4.4.2.4.4.4.4-.2.4-.4ZM14.8,29.3c0-.2-.2-.4-.4-.4s-.4.2-.4.4.2.4.4.4.4-.2.4-.4ZM15.9,29.3c0-.2-.2-.4-.4-.4s-.4.2-.4.4.2.4.4.4.4-.2.4-.4ZM19.1,29.3c0-.2-.2-.4-.4-.4s-.4.2-.4.4.2.4.4.4.4-.2.4-.4ZM20.2,29.3c0-.2-.2-.4-.4-.4s-.4.2-.4.4.2.4.4.4.4-.2.4-.4ZM24.4,29.3c0-.2-.2-.4-.4-.4s-.4.2-.4.4.2.4.4.4.4-.2.4-.4ZM26.6,29.3c0-.2-.2-.4-.4-.4s-.4.2-.4.4.2.4.4.4.4-.2.4-.4ZM29.8,29.3c0-.2-.2-.4-.4-.4s-.4.2-.4.4.2.4.4.4.4-.2.4-.4ZM30.8,29.3c0-.2-.2-.4-.4-.4s-.4.2-.4.4.2.4.4.4.4-.2.4-.4ZM33,29.3c0-.2-.2-.4-.4-.4s-.4.2-.4.4.2.4.4.4.4-.2.4-.4ZM36.2,29.3c0-.2-.2-.4-.4-.4s-.4.2-.4.4.2.4.4.4.4-.2.4-.4ZM37.2,29.3c0-.2-.2-.4-.4-.4s-.4.2-.4.4.2.4.4.4.4-.2.4-.4ZM39.4,29.3c0-.2-.2-.4-.4-.4s-.4.2-.4.4.2.4.4.4.4-.2.4-.4ZM1,30.4c0-.2-.2-.4-.4-.4s-.4.2-.4.4.2.4.4.4.4-.2.4-.4ZM2,30.4c0-.2-.2-.4-.4-.4s-.4.2-.4.4.2.4.4.4.4-.2.4-.4ZM6.3,30.4c0-.2-.2-.4-.4-.4s-.4.2-.4.4.2.4.4.4.4-.2.4-.4ZM7.4,30.4c0-.2-.2-.4-.4-.4s-.4.2-.4.4.2.4.4.4.4-.2.4-.4ZM8.4,30.4c0-.2-.2-.4-.4-.4s-.4.2-.4.4.2.4.4.4.4-.2.4-.4ZM9.5,30.4c0-.2-.2-.4-.4-.4s-.4.2-.4.4.2.4.4.4.4-.2.4-.4ZM11.6,30.4c0-.2-.2-.4-.4-.4s-.4.2-.4.4.2.4.4.4.4-.2.4-.4ZM14.8,30.4c0-.2-.2-.4-.4-.4s-.4.2-.4.4.2.4.4.4.4-.2.4-.4ZM15.9,30.4c0-.2-.2-.4-.4-.4s-.4.2-.4.4.2.4.4.4.4-.2.4-.4ZM17,30.4c0-.2-.2-.4-.4-.4s-.4.2-.4.4.2.4.4.4.4-.2.4-.4ZM18,30.4c0-.2-.2-.4-.4-.4s-.4.2-.4.4.2.4.4.4.4-.2.4-.4ZM20.2,30.4c0-.2-.2-.4-.4-.4s-.4.2-.4.4.2.4.4.4.4-.2.4-.4ZM21.2,30.4c0-.2-.2-.4-.4-.4s-.4.2-.4.4.2.4.4.4.4-.2.4-.4ZM22.3,30.4c0-.2-.2-.4-.4-.4s-.4.2-.4.4.2.4.4.4.4-.2.4-.4ZM24.4,30.4c0-.2-.2-.4-.4-.4s-.4.2-.4.4.2.4.4.4.4-.2.4-.4ZM25.5,30.4c0-.2-.2-.4-.4-.4s-.4.2-.4.4.2.4.4.4.4-.2.4-.4ZM26.6,30.4c0-.2-.2-.4-.4-.4s-.4.2-.4.4.2.4.4.4.4-.2.4-.4ZM28.7,30.4c0-.2-.2-.4-.4-.4s-.4.2-.4.4.2.4.4.4.4-.2.4-.4ZM30.8,30.4c0-.2-.2-.4-.4-.4s-.4.2-.4.4.2.4.4.4.4-.2.4-.4ZM31.9,30.4c0-.2-.2-.4-.4-.4s-.4.2-.4.4.2.4.4.4.4-.2.4-.4ZM33,30.4c0-.2-.2-.4-.4-.4s-.4.2-.4.4.2.4.4.4.4-.2.4-.4ZM34,30.4c0-.2-.2-.4-.4-.4s-.4.2-.4.4.2.4.4.4.4-.2.4-.4ZM35.1,30.4c0-.2-.2-.4-.4-.4s-.4.2-.4.4.2.4.4.4.4-.2.4-.4ZM36.2,30.4c0-.2-.2-.4-.4-.4s-.4.2-.4.4.2.4.4.4.4-.2.4-.4ZM38.3,30.4c0-.2-.2-.4-.4-.4s-.4.2-.4.4.2.4.4.4.4-.2.4-.4ZM39.4,30.4c0-.2-.2-.4-.4-.4s-.4.2-.4.4.2.4.4.4.4-.2.4-.4ZM9.5,31.5c0-.2-.2-.4-.4-.4s-.4.2-.4.4.2.4.4.4.4-.2.4-.4ZM10.6,31.5c0-.2-.2-.4-.4-.4s-.4.2-.4.4.2.4.4.4.4-.2.4-.4ZM12.7,31.5c0-.2-.2-.4-.4-.4s-.4.2-.4.4.2.4.4.4.4-.2.4-.4ZM13.8,31.5c0-.2-.2-.4-.4-.4s-.4.2-.4.4.2.4.4.4.4-.2.4-.4ZM14.8,31.5c0-.2-.2-.4-.4-.4s-.4.2-.4.4.2.4.4.4.4-.2.4-.4ZM19.1,31.5c0-.2-.2-.4-.4-.4s-.4.2-.4.4.2.4.4.4.4-.2.4-.4ZM21.2,31.5c0-.2-.2-.4-.4-.4s-.4.2-.4.4.2.4.4.4.4-.2.4-.4ZM25.5,31.5c0-.2-.2-.4-.4-.4s-.4.2-.4.4.2.4.4.4.4-.2.4-.4ZM28.7,31.5c0-.2-.2-.4-.4-.4s-.4.2-.4.4.2.4.4.4.4-.2.4-.4ZM30.8,31.5c0-.2-.2-.4-.4-.4s-.4.2-.4.4.2.4.4.4.4-.2.4-.4ZM35.1,31.5c0-.2-.2-.4-.4-.4s-.4.2-.4.4.2.4.4.4.4-.2.4-.4ZM39.4,31.5c0-.2-.2-.4-.4-.4s-.4.2-.4.4.2.4.4.4.4-.2.4-.4ZM9.5,32.5c0-.2-.2-.4-.4-.4s-.4.2-.4.4.2.4.4.4.4-.2.4-.4ZM12.7,32.5c0-.2-.2-.4-.4-.4s-.4.2-.4.4.2.4.4.4.4-.2.4-.4ZM13.8,32.5c0-.2-.2-.4-.4-.4s-.4.2-.4.4.2.4.4.4.4-.2.4-.4ZM15.9,32.5c0-.2-.2-.4-.4-.4s-.4.2-.4.4.2.4.4.4.4-.2.4-.4ZM17,32.5c0-.2-.2-.4-.4-.4s-.4.2-.4.4.2.4.4.4.4-.2.4-.4ZM20.2,32.5c0-.2-.2-.4-.4-.4s-.4.2-.4.4.2.4.4.4.4-.2.4-.4ZM21.2,32.5c0-.2-.2-.4-.4-.4s-.4.2-.4.4.2.4.4.4.4-.2.4-.4ZM23.4,32.5c0-.2-.2-.4-.4-.4s-.4.2-.4.4.2.4.4.4.4-.2.4-.4ZM24.4,32.5c0-.2-.2-.4-.4-.4s-.4.2-.4.4.2.4.4.4.4-.2.4-.4ZM25.5,32.5c0-.2-.2-.4-.4-.4s-.4.2-.4.4.2.4.4.4.4-.2.4-.4ZM26.6,32.5c0-.2-.2-.4-.4-.4s-.4.2-.4.4.2.4.4.4.4-.2.4-.4ZM27.6,32.5c0-.2-.2-.4-.4-.4s-.4.2-.4.4.2.4.4.4.4-.2.4-.4ZM28.7,32.5c0-.2-.2-.4-.4-.4s-.4.2-.4.4.2.4.4.4.4-.2.4-.4ZM30.8,32.5c0-.2-.2-.4-.4-.4s-.4.2-.4.4.2.4.4.4.4-.2.4-.4ZM33,32.5c0-.2-.2-.4-.4-.4s-.4.2-.4.4.2.4.4.4.4-.2.4-.4ZM35.1,32.5c0-.2-.2-.4-.4-.4s-.4.2-.4.4.2.4.4.4.4-.2.4-.4ZM39.4,32.5c0-.2-.2-.4-.4-.4s-.4.2-.4.4.2.4.4.4.4-.2.4-.4ZM11.6,33.6c0-.2-.2-.4-.4-.4s-.4.2-.4.4.2.4.4.4.4-.2.4-.4ZM15.9,33.6c0-.2-.2-.4-.4-.4s-.4.2-.4.4.2.4.4.4.4-.2.4-.4ZM17,33.6c0-.2-.2-.4-.4-.4s-.4.2-.4.4.2.4.4.4.4-.2.4-.4ZM18,33.6c0-.2-.2-.4-.4-.4s-.4.2-.4.4.2.4.4.4.4-.2.4-.4ZM21.2,33.6c0-.2-.2-.4-.4-.4s-.4.2-.4.4.2.4.4.4.4-.2.4-.4ZM22.3,33.6c0-.2-.2-.4-.4-.4s-.4.2-.4.4.2.4.4.4.4-.2.4-.4ZM23.4,33.6c0-.2-.2-.4-.4-.4s-.4.2-.4.4.2.4.4.4.4-.2.4-.4ZM25.5,33.6c0-.2-.2-.4-.4-.4s-.4.2-.4.4.2.4.4.4.4-.2.4-.4ZM27.6,33.6c0-.2-.2-.4-.4-.4s-.4.2-.4.4.2.4.4.4.4-.2.4-.4ZM30.8,33.6c0-.2-.2-.4-.4-.4s-.4.2-.4.4.2.4.4.4.4-.2.4-.4ZM35.1,33.6c0-.2-.2-.4-.4-.4s-.4.2-.4.4.2.4.4.4.4-.2.4-.4ZM36.2,33.6c0-.2-.2-.4-.4-.4s-.4.2-.4.4.2.4.4.4.4-.2.4-.4ZM37.2,33.6c0-.2-.2-.4-.4-.4s-.4.2-.4.4.2.4.4.4.4-.2.4-.4ZM38.3,33.6c0-.2-.2-.4-.4-.4s-.4.2-.4.4.2.4.4.4.4-.2.4-.4ZM39.4,33.6c0-.2-.2-.4-.4-.4s-.4.2-.4.4.2.4.4.4.4-.2.4-.4ZM9.5,34.7c0-.2-.2-.4-.4-.4s-.4.2-.4.4.2.4.4.4.4-.2.4-.4ZM13.8,34.7c0-.2-.2-.4-.4-.4s-.4.2-.4.4.2.4.4.4.4-.2.4-.4ZM14.8,34.7c0-.2-.2-.4-.4-.4s-.4.2-.4.4.2.4.4.4.4-.2.4-.4ZM15.9,34.7c0-.2-.2-.4-.4-.4s-.4.2-.4.4.2.4.4.4.4-.2.4-.4ZM18,34.7c0-.2-.2-.4-.4-.4s-.4.2-.4.4.2.4.4.4.4-.2.4-.4ZM22.3,34.7c0-.2-.2-.4-.4-.4s-.4.2-.4.4.2.4.4.4.4-.2.4-.4ZM25.5,34.7c0-.2-.2-.4-.4-.4s-.4.2-.4.4.2.4.4.4.4-.2.4-.4ZM27.6,34.7c0-.2-.2-.4-.4-.4s-.4.2-.4.4.2.4.4.4.4-.2.4-.4ZM30.8,34.7c0-.2-.2-.4-.4-.4s-.4.2-.4.4.2.4.4.4.4-.2.4-.4ZM31.9,34.7c0-.2-.2-.4-.4-.4s-.4.2-.4.4.2.4.4.4.4-.2.4-.4ZM33,34.7c0-.2-.2-.4-.4-.4s-.4.2-.4.4.2.4.4.4.4-.2.4-.4ZM34,34.7c0-.2-.2-.4-.4-.4s-.4.2-.4.4.2.4.4.4.4-.2.4-.4ZM35.1,34.7c0-.2-.2-.4-.4-.4s-.4.2-.4.4.2.4.4.4.4-.2.4-.4ZM36.2,34.7c0-.2-.2-.4-.4-.4s-.4.2-.4.4.2.4.4.4.4-.2.4-.4ZM37.2,34.7c0-.2-.2-.4-.4-.4s-.4.2-.4.4.2.4.4.4.4-.2.4-.4ZM38.3,34.7c0-.2-.2-.4-.4-.4s-.4.2-.4.4.2.4.4.4.4-.2.4-.4ZM10.6,35.7c0-.2-.2-.4-.4-.4s-.4.2-.4.4.2.4.4.4.4-.2.4-.4ZM11.6,35.7c0-.2-.2-.4-.4-.4s-.4.2-.4.4.2.4.4.4.4-.2.4-.4ZM14.8,35.7c0-.2-.2-.4-.4-.4s-.4.2-.4.4.2.4.4.4.4-.2.4-.4ZM15.9,35.7c0-.2-.2-.4-.4-.4s-.4.2-.4.4.2.4.4.4.4-.2.4-.4ZM19.1,35.7c0-.2-.2-.4-.4-.4s-.4.2-.4.4.2.4.4.4.4-.2.4-.4ZM20.2,35.7c0-.2-.2-.4-.4-.4s-.4.2-.4.4.2.4.4.4.4-.2.4-.4ZM21.2,35.7c0-.2-.2-.4-.4-.4s-.4.2-.4.4.2.4.4.4.4-.2.4-.4ZM24.4,35.7c0-.2-.2-.4-.4-.4s-.4.2-.4.4.2.4.4.4.4-.2.4-.4ZM26.6,35.7c0-.2-.2-.4-.4-.4s-.4.2-.4.4.2.4.4.4.4-.2.4-.4ZM28.7,35.7c0-.2-.2-.4-.4-.4s-.4.2-.4.4.2.4.4.4.4-.2.4-.4ZM30.8,35.7c0-.2-.2-.4-.4-.4s-.4.2-.4.4.2.4.4.4.4-.2.4-.4ZM33,35.7c0-.2-.2-.4-.4-.4s-.4.2-.4.4.2.4.4.4.4-.2.4-.4ZM34,35.7c0-.2-.2-.4-.4-.4s-.4.2-.4.4.2.4.4.4.4-.2.4-.4ZM36.2,35.7c0-.2-.2-.4-.4-.4s-.4.2-.4.4.2.4.4.4.4-.2.4-.4ZM37.2,35.7c0-.2-.2-.4-.4-.4s-.4.2-.4.4.2.4.4.4.4-.2.4-.4ZM38.3,35.7c0-.2-.2-.4-.4-.4s-.4.2-.4.4.2.4.4.4.4-.2.4-.4ZM39.4,35.7c0-.2-.2-.4-.4-.4s-.4.2-.4.4.2.4.4.4.4-.2.4-.4ZM10.6,36.8c0-.2-.2-.4-.4-.4s-.4.2-.4.4.2.4.4.4.4-.2.4-.4ZM12.7,36.8c0-.2-.2-.4-.4-.4s-.4.2-.4.4.2.4.4.4.4-.2.4-.4ZM13.8,36.8c0-.2-.2-.4-.4-.4s-.4.2-.4.4.2.4.4.4.4-.2.4-.4ZM15.9,36.8c0-.2-.2-.4-.4-.4s-.4.2-.4.4.2.4.4.4.4-.2.4-.4ZM17,36.8c0-.2-.2-.4-.4-.4s-.4.2-.4.4.2.4.4.4.4-.2.4-.4ZM20.2,36.8c0-.2-.2-.4-.4-.4s-.4.2-.4.4.2.4.4.4.4-.2.4-.4ZM21.2,36.8c0-.2-.2-.4-.4-.4s-.4.2-.4.4.2.4.4.4.4-.2.4-.4ZM23.4,36.8c0-.2-.2-.4-.4-.4s-.4.2-.4.4.2.4.4.4.4-.2.4-.4ZM24.4,36.8c0-.2-.2-.4-.4-.4s-.4.2-.4.4.2.4.4.4.4-.2.4-.4ZM25.5,36.8c0-.2-.2-.4-.4-.4s-.4.2-.4.4.2.4.4.4.4-.2.4-.4ZM26.6,36.8c0-.2-.2-.4-.4-.4s-.4.2-.4.4.2.4.4.4.4-.2.4-.4ZM27.6,36.8c0-.2-.2-.4-.4-.4s-.4.2-.4.4.2.4.4.4.4-.2.4-.4ZM28.7,36.8c0-.2-.2-.4-.4-.4s-.4.2-.4.4.2.4.4.4.4-.2.4-.4ZM31.9,36.8c0-.2-.2-.4-.4-.4s-.4.2-.4.4.2.4.4.4.4-.2.4-.4ZM33,36.8c0-.2-.2-.4-.4-.4s-.4.2-.4.4.2.4.4.4.4-.2.4-.4ZM36.2,36.8c0-.2-.2-.4-.4-.4s-.4.2-.4.4.2.4.4.4.4-.2.4-.4ZM38.3,36.8c0-.2-.2-.4-.4-.4s-.4.2-.4.4.2.4.4.4.4-.2.4-.4ZM13.8,37.9c0-.2-.2-.4-.4-.4s-.4.2-.4.4.2.4.4.4.4-.2.4-.4ZM14.8,37.9c0-.2-.2-.4-.4-.4s-.4.2-.4.4.2.4.4.4.4-.2.4-.4ZM17,37.9c0-.2-.2-.4-.4-.4s-.4.2-.4.4.2.4.4.4.4-.2.4-.4ZM18,37.9c0-.2-.2-.4-.4-.4s-.4.2-.4.4.2.4.4.4.4-.2.4-.4ZM21.2,37.9c0-.2-.2-.4-.4-.4s-.4.2-.4.4.2.4.4.4.4-.2.4-.4ZM22.3,37.9c0-.2-.2-.4-.4-.4s-.4.2-.4.4.2.4.4.4.4-.2.4-.4ZM23.4,37.9c0-.2-.2-.4-.4-.4s-.4.2-.4.4.2.4.4.4.4-.2.4-.4ZM25.5,37.9c0-.2-.2-.4-.4-.4s-.4.2-.4.4.2.4.4.4.4-.2.4-.4ZM29.8,37.9c0-.2-.2-.4-.4-.4s-.4.2-.4.4.2.4.4.4.4-.2.4-.4ZM30.8,37.9c0-.2-.2-.4-.4-.4s-.4.2-.4.4.2.4.4.4.4-.2.4-.4ZM33,37.9c0-.2-.2-.4-.4-.4s-.4.2-.4.4.2.4.4.4.4-.2.4-.4ZM35.1,37.9c0-.2-.2-.4-.4-.4s-.4.2-.4.4.2.4.4.4.4-.2.4-.4ZM38.3,37.9c0-.2-.2-.4-.4-.4s-.4.2-.4.4.2.4.4.4.4-.2.4-.4ZM9.5,38.9c0-.2-.2-.4-.4-.4s-.4.2-.4.4.2.4.4.4.4-.2.4-.4ZM10.6,38.9c0-.2-.2-.4-.4-.4s-.4.2-.4.4.2.4.4.4.4-.2.4-.4ZM12.7,38.9c0-.2-.2-.4-.4-.4s-.4.2-.4.4.2.4.4.4.4-.2.4-.4ZM13.8,38.9c0-.2-.2-.4-.4-.4s-.4.2-.4.4.2.4.4.4.4-.2.4-.4ZM14.8,38.9c0-.2-.2-.4-.4-.4s-.4.2-.4.4.2.4.4.4.4-.2.4-.4ZM15.9,38.9c0-.2-.2-.4-.4-.4s-.4.2-.4.4.2.4.4.4.4-.2.4-.4ZM26.6,38.9c0-.2-.2-.4-.4-.4s-.4.2-.4.4.2.4.4.4.4-.2.4-.4ZM29.8,38.9c0-.2-.2-.4-.4-.4s-.4.2-.4.4.2.4.4.4.4-.2.4-.4ZM30.8,38.9c0-.2-.2-.4-.4-.4s-.4.2-.4.4.2.4.4.4.4-.2.4-.4ZM34,38.9c0-.2-.2-.4-.4-.4s-.4.2-.4.4.2.4.4.4.4-.2.4-.4ZM38.3,38.9c0-.2-.2-.4-.4-.4s-.4.2-.4.4.2.4.4.4.4-.2.4-.4ZM39.4,38.9c0-.2-.2-.4-.4-.4s-.4.2-.4.4.2.4.4.4.4-.2.4-.4Z"/>
    <path d="M7.5.8C7.3.5,7,.2,6.7,0H.7l-.7.7v6c.2.2.5.6.8.8h5.8c.6-.2.9-.7.9-1.3V.8h0ZM6.4,5.1c0,.6-.2,1-.8,1.3H1.9c-.4-.2-.7-.5-.9-.8V1.9c.2-.4.5-.7.9-.9h3.6c.4.2.7.5.8.9v3.2h0Z"/>
    <path d="M38.7,0c.2.2.5.5.8.8v5.8c0,.3-.6.9-.9.9h-5.7c-.3,0-.8-.5-.8-.9V.8C32.2.5,32.5.2,32.7,0h6ZM37.6,6.4c.6-.2.8-.7.8-1.3V1.9c-.2-.4-.5-.7-.9-.9h-3.6c-.4.2-.7.5-.8.9v3.6c.2.4.5.7.9.9h3.7-.1Z"/>
    <path d="M0,38.7v-6c.2-.2.5-.5.8-.8h5.8c.3,0,.8.6.8.9v5.3c0,.6-.3,1.1-.9,1.3H.8c-.3-.2-.6-.5-.8-.8h0ZM5.6,38.4c.6-.2.8-.7.8-1.3v-3.2c-.2-.4-.5-.7-.9-.8H1.9c-.4.2-.7.5-.9.8v3.6c.2.4.5.7.9.9h3.7Z"/>
    <circle cx="19.7" cy=".5" r=".4"/>
    <circle cx="20.8" cy=".5" r=".4"/>
    <circle cx="24" cy=".5" r=".4"/>
    <circle cx="26.1" cy=".5" r=".4"/>
    <circle cx="28.3" cy=".5" r=".4"/>
    <circle cx="30.4" cy=".5" r=".4"/>
    <circle cx="18.7" cy=".5" r=".4"/>
    <circle cx="17.6" cy=".5" r=".4"/>
    <circle cx="10.1" cy="1.6" r=".4"/>
    <circle cx="11.2" cy="1.6" r=".4"/>
    <circle cx="12.3" cy="1.6" r=".4"/>
    <circle cx="15.5" cy="1.6" r=".4"/>
    <circle cx="18.7" cy="1.6" r=".4"/>
    <circle cx="21.9" cy="1.6" r=".4"/>
    <circle cx="29.3" cy="1.6" r=".4"/>
    <circle cx="15.5" cy=".5" r=".4"/>
    <circle cx="14.4" cy=".5" r=".4"/>
    <circle cx="12.3" cy="2.7" r=".4"/>
    <circle cx="13.3" cy="2.7" r=".4"/>
    <circle cx="14.4" cy="2.7" r=".4"/>
    <circle cx="20.8" cy="2.7" r=".4"/>
    <circle cx="21.9" cy="2.7" r=".4"/>
    <circle cx="22.9" cy="2.7" r=".4"/>
    <circle cx="25.1" cy="2.7" r=".4"/>
    <circle cx="28.3" cy="2.7" r=".4"/>
    <circle cx="9.1" cy="3.7" r=".4"/>
    <circle cx="11.2" cy="3.7" r=".4"/>
    <circle cx="14.4" cy="3.7" r=".4"/>
    <circle cx="16.5" cy="3.7" r=".4"/>
    <circle cx="18.7" cy="3.7" r=".4"/>
    <circle cx="19.7" cy="3.7" r=".4"/>
    <circle cx="20.8" cy="3.7" r=".4"/>
    <circle cx="21.9" cy="3.7" r=".4"/>
    <circle cx="22.9" cy="3.7" r=".4"/>
    <circle cx="24" cy="3.7" r=".4"/>
    <circle cx="25.1" cy="3.7" r=".4"/>
    <circle cx="27.2" cy="3.7" r=".4"/>
    <circle cx="28.3" cy="3.7" r=".4"/>
    <circle cx="30.4" cy="3.7" r=".4"/>
    <circle cx="9.1" cy="4.8" r=".4"/>
    <circle cx="10.1" cy="4.8" r=".4"/>
    <circle cx="11.2" cy="4.8" r=".4"/>
    <circle cx="12.3" cy="4.8" r=".4"/>
    <circle cx="15.5" cy="4.8" r=".4"/>
    <circle cx="16.5" cy="4.8" r=".4"/>
    <circle cx="19.7" cy="4.8" r=".4"/>
    <circle cx="20.8" cy="4.8" r=".4"/>
    <circle cx="21.9" cy="4.8" r=".4"/>
    <circle cx="22.9" cy="4.8" r=".4"/>
    <circle cx="24" cy="4.8" r=".4"/>
    <circle cx="27.2" cy="4.8" r=".4"/>
    <circle cx="28.3" cy="4.8" r=".4"/>
    <circle cx="29.3" cy="4.8" r=".4"/>
    <circle cx="30.4" cy="4.8" r=".4"/>
    <circle cx="9.1" cy="5.9" r=".4"/>
    <circle cx="10.1" cy="5.9" r=".4"/>
    <circle cx="12.3" cy="5.9" r=".4"/>
    <circle cx="13.3" cy="5.9" r=".4"/>
    <circle cx="14.4" cy="5.9" r=".4"/>
    <circle cx="15.5" cy="5.9" r=".4"/>
    <circle cx="16.5" cy="5.9" r=".4"/>
    <circle cx="17.6" cy="5.9" r=".4"/>
    <circle cx="19.7" cy="5.9" r=".4"/>
    <circle cx="20.8" cy="5.9" r=".4"/>
    <circle cx="22.9" cy="5.9" r=".4"/>
    <circle cx="24" cy="5.9" r=".4"/>
    <circle cx="25.1" cy="5.9" r=".4"/>
    <circle cx="26.1" cy="5.9" r=".4"/>
    <circle cx="27.2" cy="5.9" r=".4"/>
    <circle cx="28.3" cy="5.9" r=".4"/>
    <circle cx="30.4" cy="5.9" r=".4"/>
    <circle cx="9.1" cy="6.9" r=".4"/>
    <circle cx="11.2" cy="6.9" r=".4"/>
    <circle cx="13.3" cy="6.9" r=".4"/>
    <circle cx="15.5" cy="6.9" r=".4"/>
    <circle cx="17.6" cy="6.9" r=".4"/>
    <circle cx="19.7" cy="6.9" r=".4"/>
    <circle cx="21.9" cy="6.9" r=".4"/>
    <circle cx="24" cy="6.9" r=".4"/>
    <circle cx="26.1" cy="6.9" r=".4"/>
    <circle cx="28.3" cy="6.9" r=".4"/>
    <circle cx="30.4" cy="6.9" r=".4"/>
    <circle cx="9.1" cy="8" r=".4"/>
    <circle cx="12.3" cy="8" r=".4"/>
    <circle cx="15.5" cy="8" r=".4"/>
    <circle cx="16.5" cy="8" r=".4"/>
    <circle cx="17.6" cy="8" r=".4"/>
    <circle cx="18.7" cy="8" r=".4"/>
    <circle cx="19.7" cy="8" r=".4"/>
    <circle cx="24" cy="8" r=".4"/>
    <circle cx="26.1" cy="8" r=".4"/>
    <circle cx="28.3" cy="8" r=".4"/>
    <circle cx="29.3" cy="8" r=".4"/>
    <circle cx=".5" cy="9.1" r=".4"/>
    <circle cx="4.8" cy="9.1" r=".4"/>
    <circle cx="6.9" cy="9.1" r=".4"/>
    <circle cx="8" cy="9.1" r=".4"/>
    <circle cx="9.1" cy="9.1" r=".4"/>
    <circle cx="10.1" cy="9.1" r=".4"/>
    <circle cx="11.2" cy="9.1" r=".4"/>
    <circle cx="14.4" cy="9.1" r=".4"/>
    <circle cx="15.5" cy="9.1" r=".4"/>
    <circle cx="19.7" cy="9.1" r=".4"/>
    <circle cx="20.8" cy="9.1" r=".4"/>
    <circle cx="24" cy="9.1" r=".4"/>
    <circle cx="25.1" cy="9.1" r=".4"/>
    <circle cx="26.1" cy="9.1" r=".4"/>
    <circle cx="27.2" cy="9.1" r=".4"/>
    <circle cx="28.3" cy="9.1" r=".4"/>
    <circle cx="29.3" cy="9.1" r=".4"/>
    <circle cx="30.4" cy="9.1" r=".4"/>
    <circle cx="31.5" cy="9.1" r=".4"/>
    <circle cx="32.5" cy="9.1" r=".4"/>
    <circle cx="33.6" cy="9.1" r=".4"/>
    <circle cx="34.7" cy="9.1" r=".4"/>
    <circle cx="35.7" cy="9.1" r=".4"/>
    <circle cx="38.9" cy="9.1" r=".4"/>
    <circle cx="1.6" cy="10.1" r=".4"/>
    <circle cx="2.7" cy="10.1" r=".4"/>
    <circle cx="3.7" cy="10.1" r=".4"/>
    <circle cx="4.8" cy="10.1" r=".4"/>
    <circle cx="5.9" cy="10.1" r=".4"/>
    <circle cx="8" cy="10.1" r=".4"/>
    <circle cx="13.3" cy="10.1" r=".4"/>
    <circle cx="14.4" cy="10.1" r=".4"/>
    <circle cx="15.5" cy="10.1" r=".4"/>
    <circle cx="17.6" cy="10.1" r=".4"/>
    <circle cx="20.8" cy="10.1" r=".4"/>
    <circle cx="21.9" cy="10.1" r=".4"/>
    <circle cx="22.9" cy="10.1" r=".4"/>
    <circle cx="27.2" cy="10.1" r=".4"/>
    <circle cx="31.5" cy="10.1" r=".4"/>
    <circle cx="32.5" cy="10.1" r=".4"/>
    <circle cx="33.6" cy="10.1" r=".4"/>
    <circle cx="34.7" cy="10.1" r=".4"/>
    <circle cx="37.9" cy="10.1" r=".4"/>
    <circle cx=".5" cy="11.2" r=".4"/>
    <circle cx="2.7" cy="11.2" r=".4"/>
    <circle cx="4.8" cy="11.2" r=".4"/>
    <circle cx="6.9" cy="11.2" r=".4"/>
    <circle cx="8" cy="11.2" r=".4"/>
    <circle cx="9.1" cy="11.2" r=".4"/>
    <circle cx="10.1" cy="11.2" r=".4"/>
    <circle cx="11.2" cy="11.2" r=".4"/>
    <circle cx="12.3" cy="11.2" r=".4"/>
    <circle cx="13.3" cy="11.2" r=".4"/>
    <circle cx="17.6" cy="11.2" r=".4"/>
    <circle cx="18.7" cy="11.2" r=".4"/>
    <circle cx="21.9" cy="11.2" r=".4"/>
    <circle cx="28.3" cy="11.2" r=".4"/>
    <circle cx="29.3" cy="11.2" r=".4"/>
    <circle cx="33.6" cy="11.2" r=".4"/>
    <circle cx="36.8" cy="11.2" r=".4"/>
    <circle cx="5.9" cy="12.3" r=".4"/>
    <circle cx="8" cy="12.3" r=".4"/>
    <circle cx="12.3" cy="12.3" r=".4"/>
    <circle cx="13.3" cy="12.3" r=".4"/>
    <circle cx="18.7" cy="12.3" r=".4"/>
    <circle cx="19.7" cy="12.3" r=".4"/>
    <circle cx="24" cy="12.3" r=".4"/>
    <circle cx="26.1" cy="12.3" r=".4"/>
    <circle cx="29.3" cy="12.3" r=".4"/>
    <circle cx="30.4" cy="12.3" r=".4"/>
    <circle cx="32.5" cy="12.3" r=".4"/>
    <circle cx="35.7" cy="12.3" r=".4"/>
    <circle cx="36.8" cy="12.3" r=".4"/>
    <circle cx="37.9" cy="12.3" r=".4"/>
    <circle cx="3.7" cy="13.3" r=".4"/>
    <circle cx="6.9" cy="13.3" r=".4"/>
    <circle cx="8" cy="13.3" r=".4"/>
    <circle cx="9.1" cy="13.3" r=".4"/>
    <circle cx="10.1" cy="13.3" r=".4"/>
    <circle cx="12.3" cy="13.3" r=".4"/>
    <circle cx="14.4" cy="13.3" r=".4"/>
    <circle cx="15.5" cy="13.3" r=".4"/>
    <circle cx="16.5" cy="13.3" r=".4"/>
    <circle cx="17.6" cy="13.3" r=".4"/>
    <circle cx="19.7" cy="13.3" r=".4"/>
    <circle cx="20.8" cy="13.3" r=".4"/>
    <circle cx="21.9" cy="13.3" r=".4"/>
    <circle cx="24" cy="13.3" r=".4"/>
    <circle cx="25.1" cy="13.3" r=".4"/>
    <circle cx="26.1" cy="13.3" r=".4"/>
    <circle cx="31.5" cy="13.3" r=".4"/>
    <circle cx="32.5" cy="13.3" r=".4"/>
    <circle cx="35.7" cy="13.3" r=".4"/>
    <circle cx="37.9" cy="13.3" r=".4"/>
    <circle cx="38.9" cy="13.3" r=".4"/>
    <circle cx=".5" cy="14.4" r=".4"/>
    <circle cx="1.6" cy="14.4" r=".4"/>
    <circle cx="4.8" cy="14.4" r=".4"/>
    <circle cx="5.9" cy="14.4" r=".4"/>
    <circle cx="8" cy="14.4" r=".4"/>
    <circle cx="9.1" cy="14.4" r=".4"/>
    <circle cx="10.1" cy="14.4" r=".4"/>
    <circle cx="11.2" cy="14.4" r=".4"/>
    <circle cx="26.1" cy="14.4" r=".4"/>
    <circle cx="28.3" cy="14.4" r=".4"/>
    <circle cx="29.3" cy="14.4" r=".4"/>
    <circle cx="30.4" cy="14.4" r=".4"/>
    <circle cx="31.5" cy="14.4" r=".4"/>
    <circle cx="34.7" cy="14.4" r=".4"/>
    <circle cx="35.7" cy="14.4" r=".4"/>
    <circle cx="38.9" cy="14.4" r=".4"/>
    <circle cx="1.6" cy="15.5" r=".4"/>
    <circle cx="3.7" cy="15.5" r=".4"/>
    <circle cx="4.8" cy="15.5" r=".4"/>
    <circle cx="5.9" cy="15.5" r=".4"/>
    <circle cx="6.9" cy="15.5" r=".4"/>
    <circle cx="9.1" cy="15.5" r=".4"/>
    <circle cx="12.3" cy="15.5" r=".4"/>
    <circle cx="13.3" cy="15.5" r=".4"/>
    <circle cx="14.4" cy="15.5" r=".4"/>
    <circle cx="13.3" cy=".5" r=".4"/>
    <circle cx="25.1" cy="15.5" r=".4"/>
    <circle cx="26.1" cy="15.5" r=".4"/>
    <circle cx="27.2" cy="15.5" r=".4"/>
    <circle cx="28.3" cy="15.5" r=".4"/>
    <circle cx="29.3" cy="15.5" r=".4"/>
    <circle cx="32.5" cy="15.5" r=".4"/>
    <circle cx="33.6" cy="15.5" r=".4"/>
    <circle cx="34.7" cy="15.5" r=".4"/>
    <circle cx="35.7" cy="15.5" r=".4"/>
    <circle cx="36.8" cy="15.5" r=".4"/>
    <circle cx="38.9" cy="15.5" r=".4"/>
    <circle cx=".5" cy="16.5" r=".4"/>
    <circle cx="1.6" cy="16.5" r=".4"/>
    <circle cx="3.7" cy="16.5" r=".4"/>
    <circle cx="4.8" cy="16.5" r=".4"/>
    <circle cx="9.1" cy="16.5" r=".4"/>
    <circle cx="10.1" cy="16.5" r=".4"/>
    <circle cx="11.2" cy="16.5" r=".4"/>
    <circle cx="13.3" cy="16.5" r=".4"/>
    <circle cx="26.1" cy="16.5" r=".4"/>
    <circle cx="27.2" cy="16.5" r=".4"/>
    <circle cx="29.3" cy="16.5" r=".4"/>
    <circle cx="31.5" cy="16.5" r=".4"/>
    <circle cx="32.5" cy="16.5" r=".4"/>
    <circle cx="33.6" cy="16.5" r=".4"/>
    <circle cx="34.7" cy="16.5" r=".4"/>
    <circle cx="36.8" cy="16.5" r=".4"/>
    <circle cx="37.9" cy="16.5" r=".4"/>
    <circle cx="38.9" cy="16.5" r=".4"/>
    <circle cx="2.7" cy="17.6" r=".4"/>
    <circle cx="3.7" cy="17.6" r=".4"/>
    <circle cx="5.9" cy="17.6" r=".4"/>
    <circle cx="6.9" cy="17.6" r=".4"/>
    <circle cx="9.1" cy="17.6" r=".4"/>
    <circle cx="10.1" cy="17.6" r=".4"/>
    <circle cx="11.2" cy="17.6" r=".4"/>
    <circle cx="13.3" cy="17.6" r=".4"/>
    <circle cx="14.4" cy="17.6" r=".4"/>
    <circle cx="25.1" cy="17.6" r=".4"/>
    <circle cx="27.2" cy="17.6" r=".4"/>
    <circle cx="31.5" cy="17.6" r=".4"/>
    <circle cx="33.6" cy="17.6" r=".4"/>
    <circle cx="34.7" cy="17.6" r=".4"/>
    <circle cx="35.7" cy="17.6" r=".4"/>
    <circle cx="36.8" cy="17.6" r=".4"/>
    <circle cx="37.9" cy="17.6" r=".4"/>
    <circle cx=".5" cy="18.7" r=".4"/>
    <circle cx="1.6" cy="18.7" r=".4"/>
    <circle cx="2.7" cy="18.7" r=".4"/>
    <circle cx="4.8" cy="18.7" r=".4"/>
    <circle cx="8" cy="18.7" r=".4"/>
    <circle cx="26.1" cy="18.7" r=".4"/>
    <circle cx="27.2" cy="18.7" r=".4"/>
    <circle cx="28.3" cy="18.7" r=".4"/>
    <circle cx="30.4" cy="18.7" r=".4"/>
    <circle cx="32.5" cy="18.7" r=".4"/>
    <circle cx="35.7" cy="18.7" r=".4"/>
    <circle cx="36.8" cy="18.7" r=".4"/>
    <circle cx="37.9" cy="18.7" r=".4"/>
    <circle cx="1.6" cy="19.7" r=".4"/>
    <circle cx="3.7" cy="19.7" r=".4"/>
    <circle cx="6.9" cy="19.7" r=".4"/>
    <circle cx="9.1" cy="19.7" r=".4"/>
    <circle cx="10.1" cy="19.7" r=".4"/>
    <circle cx="11.2" cy="19.7" r=".4"/>
    <circle cx="12.3" cy="19.7" r=".4"/>
    <circle cx="13.3" cy="19.7" r=".4"/>
    <circle cx="14.4" cy="19.7" r=".4"/>
    <circle cx="25.1" cy="19.7" r=".4"/>
    <circle cx="26.1" cy="19.7" r=".4"/>
    <circle cx="28.3" cy="19.7" r=".4"/>
    <circle cx="30.4" cy="19.7" r=".4"/>
    <circle cx="34.7" cy="19.7" r=".4"/>
    <circle cx="35.7" cy="19.7" r=".4"/>
    <circle cx=".5" cy="20.8" r=".4"/>
    <circle cx="3.7" cy="20.8" r=".4"/>
    <circle cx="4.8" cy="20.8" r=".4"/>
    <circle cx="5.9" cy="20.8" r=".4"/>
    <circle cx="11.2" cy="20.8" r=".4"/>
    <circle cx="25.1" cy="20.8" r=".4"/>
    <circle cx="28.3" cy="20.8" r=".4"/>
    <circle cx="32.5" cy="20.8" r=".4"/>
    <circle cx="33.6" cy="20.8" r=".4"/>
    <circle cx="34.7" cy="20.8" r=".4"/>
    <circle cx="37.9" cy="20.8" r=".4"/>
    <circle cx="1.6" cy="21.9" r=".4"/>
    <circle cx="2.7" cy="21.9" r=".4"/>
    <circle cx="3.7" cy="21.9" r=".4"/>
    <circle cx="5.9" cy="21.9" r=".4"/>
    <circle cx="6.9" cy="21.9" r=".4"/>
    <circle cx="12.3" cy="21.9" r=".4"/>
    <circle cx="13.3" cy="21.9" r=".4"/>
    <circle cx="26.1" cy="21.9" r=".4"/>
    <circle cx="29.3" cy="21.9" r=".4"/>
    <circle cx="31.5" cy="21.9" r=".4"/>
    <circle cx="32.5" cy="21.9" r=".4"/>
    <circle cx="33.6" cy="21.9" r=".4"/>
    <circle cx="1.6" cy="22.9" r=".4"/>
    <circle cx="2.7" cy="22.9" r=".4"/>
    <circle cx="3.7" cy="22.9" r=".4"/>
    <circle cx="4.8" cy="22.9" r=".4"/>
    <circle cx="11.2" cy="22.9" r=".4"/>
    <circle cx="12.3" cy="22.9" r=".4"/>
    <circle cx="13.3" cy="22.9" r=".4"/>
    <circle cx="25.1" cy="22.9" r=".4"/>
    <circle cx="26.1" cy="22.9" r=".4"/>
    <circle cx="27.2" cy="22.9" r=".4"/>
    <circle cx="29.3" cy="22.9" r=".4"/>
    <circle cx="30.4" cy="22.9" r=".4"/>
    <circle cx="31.5" cy="22.9" r=".4"/>
    <circle cx="33.6" cy="22.9" r=".4"/>
    <circle cx="34.7" cy="22.9" r=".4"/>
    <circle cx="37.9" cy="22.9" r=".4"/>
    <circle cx="38.9" cy="22.9" r=".4"/>
    <circle cx="12.3" cy=".5" r=".4"/>
    <circle cx=".5" cy="24" r=".4"/>
    <circle cx="2.7" cy="24" r=".4"/>
    <circle cx="3.7" cy="24" r=".4"/>
    <circle cx="5.9" cy="24" r=".4"/>
    <circle cx="6.9" cy="24" r=".4"/>
    <circle cx="10.1" cy="24" r=".4"/>
    <circle cx="11.2" cy="24" r=".4"/>
    <circle cx="25.1" cy="24" r=".4"/>
    <circle cx="26.1" cy="24" r=".4"/>
    <circle cx="29.3" cy="24" r=".4"/>
    <circle cx="30.4" cy="24" r=".4"/>
    <circle cx="31.5" cy="24" r=".4"/>
    <circle cx="33.6" cy="24" r=".4"/>
    <circle cx="34.7" cy="24" r=".4"/>
    <circle cx="35.7" cy="24" r=".4"/>
    <circle cx="36.8" cy="24" r=".4"/>
    <circle cx="37.9" cy="24" r=".4"/>
    <circle cx="1.6" cy="25.1" r=".4"/>
    <circle cx="2.7" cy="25.1" r=".4"/>
    <circle cx="5.9" cy="25.1" r=".4"/>
    <circle cx="12.3" cy="25.1" r=".4"/>
    <circle cx="14.4" cy="25.1" r=".4"/>
    <circle cx="26.1" cy="25.1" r=".4"/>
    <circle cx="28.3" cy="25.1" r=".4"/>
    <circle cx="29.3" cy="25.1" r=".4"/>
    <circle cx="33.6" cy="25.1" r=".4"/>
    <circle cx="34.7" cy="25.1" r=".4"/>
    <circle cx="36.8" cy="25.1" r=".4"/>
    <circle cx="1.6" cy="26.1" r=".4"/>
    <circle cx="6.9" cy="26.1" r=".4"/>
    <circle cx="9.1" cy="26.1" r=".4"/>
    <circle cx="12.3" cy="26.1" r=".4"/>
    <circle cx="13.3" cy="26.1" r=".4"/>
    <circle cx="15.5" cy="26.1" r=".4"/>
    <circle cx="16.5" cy="26.1" r=".4"/>
    <circle cx="19.7" cy="26.1" r=".4"/>
    <circle cx="20.8" cy="26.1" r=".4"/>
    <circle cx="24" cy="26.1" r=".4"/>
    <circle cx="25.1" cy="26.1" r=".4"/>
    <circle cx="26.1" cy="26.1" r=".4"/>
    <circle cx="27.2" cy="26.1" r=".4"/>
    <circle cx="28.3" cy="26.1" r=".4"/>
    <circle cx="30.4" cy="26.1" r=".4"/>
    <circle cx="32.5" cy="26.1" r=".4"/>
    <circle cx="34.7" cy="26.1" r=".4"/>
    <circle cx="35.7" cy="26.1" r=".4"/>
    <circle cx="36.8" cy="26.1" r=".4"/>
    <circle cx="38.9" cy="26.1" r=".4"/>
    <circle cx=".5" cy="27.2" r=".4"/>
    <circle cx="8" cy="27.2" r=".4"/>
    <circle cx="9.1" cy="27.2" r=".4"/>
    <circle cx="12.3" cy="27.2" r=".4"/>
    <circle cx="14.4" cy="27.2" r=".4"/>
    <circle cx="15.5" cy="27.2" r=".4"/>
    <circle cx="17.6" cy="27.2" r=".4"/>
    <circle cx="20.8" cy="27.2" r=".4"/>
    <circle cx="21.9" cy="27.2" r=".4"/>
    <circle cx="22.9" cy="27.2" r=".4"/>
    <circle cx="27.2" cy="27.2" r=".4"/>
    <circle cx="31.5" cy="27.2" r=".4"/>
    <circle cx="32.5" cy="27.2" r=".4"/>
    <circle cx="33.6" cy="27.2" r=".4"/>
    <circle cx="34.7" cy="27.2" r=".4"/>
    <circle cx="4.8" cy="28.3" r=".4"/>
    <circle cx="5.9" cy="28.3" r=".4"/>
    <circle cx="6.9" cy="28.3" r=".4"/>
    <circle cx="10.1" cy="28.3" r=".4"/>
    <circle cx="14.4" cy="28.3" r=".4"/>
    <circle cx="17.6" cy="28.3" r=".4"/>
    <circle cx="18.7" cy="28.3" r=".4"/>
    <circle cx="21.9" cy="28.3" r=".4"/>
    <circle cx="27.2" cy="28.3" r=".4"/>
    <circle cx="28.3" cy="28.3" r=".4"/>
    <circle cx="29.3" cy="28.3" r=".4"/>
    <circle cx="33.6" cy="28.3" r=".4"/>
    <circle cx="36.8" cy="28.3" r=".4"/>
    <circle cx="2.7" cy="29.3" r=".4"/>
    <circle cx="3.7" cy="29.3" r=".4"/>
    <circle cx="5.9" cy="29.3" r=".4"/>
    <circle cx="8" cy="29.3" r=".4"/>
    <circle cx="11.2" cy="29.3" r=".4"/>
    <circle cx="12.3" cy="29.3" r=".4"/>
    <circle cx="14.4" cy="29.3" r=".4"/>
    <circle cx="15.5" cy="29.3" r=".4"/>
    <circle cx="18.7" cy="29.3" r=".4"/>
    <circle cx="19.7" cy="29.3" r=".4"/>
    <circle cx="24" cy="29.3" r=".4"/>
    <circle cx="26.1" cy="29.3" r=".4"/>
    <circle cx="29.3" cy="29.3" r=".4"/>
    <circle cx="30.4" cy="29.3" r=".4"/>
    <circle cx="32.5" cy="29.3" r=".4"/>
    <circle cx="35.7" cy="29.3" r=".4"/>
    <circle cx="36.8" cy="29.3" r=".4"/>
    <circle cx="38.9" cy="29.3" r=".4"/>
    <circle cx=".5" cy="30.4" r=".4"/>
    <circle cx="1.6" cy="30.4" r=".4"/>
    <circle cx="5.9" cy="30.4" r=".4"/>
    <circle cx="6.9" cy="30.4" r=".4"/>
    <circle cx="8" cy="30.4" r=".4"/>
    <circle cx="9.1" cy="30.4" r=".4"/>
    <circle cx="11.2" cy="30.4" r=".4"/>
    <circle cx="14.4" cy="30.4" r=".4"/>
    <circle cx="15.5" cy="30.4" r=".4"/>
    <circle cx="16.5" cy="30.4" r=".4"/>
    <circle cx="17.6" cy="30.4" r=".4"/>
    <circle cx="19.7" cy="30.4" r=".4"/>
    <circle cx="20.8" cy="30.4" r=".4"/>
    <circle cx="21.9" cy="30.4" r=".4"/>
    <circle cx="24" cy="30.4" r=".4"/>
    <circle cx="25.1" cy="30.4" r=".4"/>
    <circle cx="26.1" cy="30.4" r=".4"/>
    <circle cx="28.3" cy="30.4" r=".4"/>
    <circle cx="30.4" cy="30.4" r=".4"/>
    <circle cx="31.5" cy="30.4" r=".4"/>
    <circle cx="32.5" cy="30.4" r=".4"/>
    <circle cx="33.6" cy="30.4" r=".4"/>
    <circle cx="34.7" cy="30.4" r=".4"/>
    <circle cx="35.7" cy="30.4" r=".4"/>
    <circle cx="37.9" cy="30.4" r=".4"/>
    <circle cx="38.9" cy="30.4" r=".4"/>
    <circle cx="9.1" cy="31.5" r=".4"/>
    <circle cx="10.1" cy="31.5" r=".4"/>
    <circle cx="12.3" cy="31.5" r=".4"/>
    <circle cx="13.3" cy="31.5" r=".4"/>
    <circle cx="14.4" cy="31.5" r=".4"/>
    <circle cx="18.7" cy="31.5" r=".4"/>
    <circle cx="20.8" cy="31.5" r=".4"/>
    <circle cx="25.1" cy="31.5" r=".4"/>
    <circle cx="28.3" cy="31.5" r=".4"/>
    <circle cx="30.4" cy="31.5" r=".4"/>
    <circle cx="34.7" cy="31.5" r=".4"/>
    <circle cx="38.9" cy="31.5" r=".4"/>
    <circle cx="11.2" cy=".5" r=".4"/>
    <circle cx="9.1" cy="32.5" r=".4"/>
    <circle cx="12.3" cy="32.5" r=".4"/>
    <circle cx="13.3" cy="32.5" r=".4"/>
    <circle cx="15.5" cy="32.5" r=".4"/>
    <circle cx="16.5" cy="32.5" r=".4"/>
    <circle cx="19.7" cy="32.5" r=".4"/>
    <circle cx="20.8" cy="32.5" r=".4"/>
    <circle cx="22.9" cy="32.5" r=".4"/>
    <circle cx="24" cy="32.5" r=".4"/>
    <circle cx="25.1" cy="32.5" r=".4"/>
    <circle cx="26.1" cy="32.5" r=".4"/>
    <circle cx="27.2" cy="32.5" r=".4"/>
    <circle cx="28.3" cy="32.5" r=".4"/>
    <circle cx="30.4" cy="32.5" r=".4"/>
    <circle cx="32.5" cy="32.5" r=".4"/>
    <circle cx="34.7" cy="32.5" r=".4"/>
    <circle cx="38.9" cy="32.5" r=".4"/>
    <circle cx="10.1" cy=".5" r=".4"/>
    <circle cx="11.2" cy="33.6" r=".4"/>
    <circle cx="15.5" cy="33.6" r=".4"/>
    <circle cx="16.5" cy="33.6" r=".4"/>
    <circle cx="17.6" cy="33.6" r=".4"/>
    <circle cx="20.8" cy="33.6" r=".4"/>
    <circle cx="21.9" cy="33.6" r=".4"/>
    <circle cx="22.9" cy="33.6" r=".4"/>
    <circle cx="25.1" cy="33.6" r=".4"/>
    <circle cx="27.2" cy="33.6" r=".4"/>
    <circle cx="30.4" cy="33.6" r=".4"/>
    <circle cx="34.7" cy="33.6" r=".4"/>
    <circle cx="35.7" cy="33.6" r=".4"/>
    <circle cx="36.8" cy="33.6" r=".4"/>
    <circle cx="37.9" cy="33.6" r=".4"/>
    <circle cx="38.9" cy="33.6" r=".4"/>
    <circle cx="9.1" cy=".5" r=".4"/>
    <circle cx="9.1" cy="34.7" r=".4"/>
    <circle cx="13.3" cy="34.7" r=".4"/>
    <circle cx="14.4" cy="34.7" r=".4"/>
    <circle cx="15.5" cy="34.7" r=".4"/>
    <circle cx="17.6" cy="34.7" r=".4"/>
    <circle cx="21.9" cy="34.7" r=".4"/>
    <circle cx="25.1" cy="34.7" r=".4"/>
    <circle cx="27.2" cy="34.7" r=".4"/>
    <circle cx="30.4" cy="34.7" r=".4"/>
    <circle cx="31.5" cy="34.7" r=".4"/>
    <circle cx="32.5" cy="34.7" r=".4"/>
    <circle cx="33.6" cy="34.7" r=".4"/>
    <circle cx="34.7" cy="34.7" r=".4"/>
    <circle cx="35.7" cy="34.7" r=".4"/>
    <circle cx="36.8" cy="34.7" r=".4"/>
    <circle cx="37.9" cy="34.7" r=".4"/>
    <circle cx="10.1" cy="35.7" r=".4"/>
    <circle cx="11.2" cy="35.7" r=".4"/>
    <circle cx="14.4" cy="35.7" r=".4"/>
    <circle cx="15.5" cy="35.7" r=".4"/>
    <circle cx="18.7" cy="35.7" r=".4"/>
    <circle cx="19.7" cy="35.7" r=".4"/>
    <circle cx="20.8" cy="35.7" r=".4"/>
    <circle cx="24" cy="35.7" r=".4"/>
    <circle cx="26.1" cy="35.7" r=".4"/>
    <circle cx="28.3" cy="35.7" r=".4"/>
    <circle cx="30.4" cy="35.7" r=".4"/>
    <circle cx="32.5" cy="35.7" r=".4"/>
    <circle cx="33.6" cy="35.7" r=".4"/>
    <circle cx="35.7" cy="35.7" r=".4"/>
    <circle cx="36.8" cy="35.7" r=".4"/>
    <circle cx="37.9" cy="35.7" r=".4"/>
    <circle cx="38.9" cy="35.7" r=".4"/>
    <circle cx="10.1" cy="36.8" r=".4"/>
    <circle cx="12.3" cy="36.8" r=".4"/>
    <circle cx="13.3" cy="36.8" r=".4"/>
    <circle cx="15.5" cy="36.8" r=".4"/>
    <circle cx="16.5" cy="36.8" r=".4"/>
    <circle cx="19.7" cy="36.8" r=".4"/>
    <circle cx="20.8" cy="36.8" r=".4"/>
    <circle cx="22.9" cy="36.8" r=".4"/>
    <circle cx="24" cy="36.8" r=".4"/>
    <circle cx="25.1" cy="36.8" r=".4"/>
    <circle cx="26.1" cy="36.8" r=".4"/>
    <circle cx="27.2" cy="36.8" r=".4"/>
    <circle cx="28.3" cy="36.8" r=".4"/>
    <circle cx="31.5" cy="36.8" r=".4"/>
    <circle cx="32.5" cy="36.8" r=".4"/>
    <circle cx="35.7" cy="36.8" r=".4"/>
    <circle cx="37.9" cy="36.8" r=".4"/>
    <circle cx="13.3" cy="37.9" r=".4"/>
    <circle cx="14.4" cy="37.9" r=".4"/>
    <circle cx="16.5" cy="37.9" r=".4"/>
    <circle cx="17.6" cy="37.9" r=".4"/>
    <circle cx="20.8" cy="37.9" r=".4"/>
    <circle cx="21.9" cy="37.9" r=".4"/>
    <circle cx="22.9" cy="37.9" r=".4"/>
    <circle cx="25.1" cy="37.9" r=".4"/>
    <circle cx="29.3" cy="37.9" r=".4"/>
    <circle cx="30.4" cy="37.9" r=".4"/>
    <circle cx="32.5" cy="37.9" r=".4"/>
    <circle cx="34.7" cy="37.9" r=".4"/>
    <circle cx="37.9" cy="37.9" r=".4"/>
    <circle cx="9.1" cy="38.9" r=".4"/>
    <circle cx="10.1" cy="38.9" r=".4"/>
    <circle cx="12.3" cy="38.9" r=".4"/>
    <circle cx="13.3" cy="38.9" r=".4"/>
    <circle cx="14.4" cy="38.9" r=".4"/>
    <circle cx="15.5" cy="38.9" r=".4"/>
    <circle cx="26.1" cy="38.9" r=".4"/>
    <circle cx="29.3" cy="38.9" r=".4"/>
    <circle cx="30.4" cy="38.9" r=".4"/>
    <circle cx="33.6" cy="38.9" r=".4"/>
    <circle cx="37.9" cy="38.9" r=".4"/>
    <circle cx="38.9" cy="38.9" r=".4"/>
    <path class="st1" d="M5.6,6.4H1.9c-.4-.2-.7-.5-.9-.8V1.9c.2-.4.5-.7.9-.9h3.6c.4.2.7.5.8.9v3.2c0,.6-.2,1-.8,1.3h0ZM5,2.4c-.3-.3-.8-.3-1.2-.3s-1,0-1.3.4c-.3.3-.3.8-.3,1.2s0,1,.4,1.3c.3.3.8.3,1.2.3s1,0,1.3-.4c.4-.4.5-2,0-2.5h-.1Z"/>
    <path class="st1" d="M37.6,6.4h-3.7c-.4-.2-.7-.5-.9-.8V1.9c.2-.4.5-.7.8-.9h3.6c.4.2.7.5.8.9v3.2c0,.6-.2,1-.8,1.3h.2ZM37,2.4c-.3-.3-.8-.3-1.2-.3s-1,0-1.3.4c-.3.3-.3.8-.3,1.2s0,1,.4,1.3c.3.3.8.3,1.2.3s1,0,1.3-.4c.4-.4.5-2,0-2.5h-.1Z"/>
    <path class="st1" d="M5.6,38.4H1.9c-.4-.2-.7-.5-.9-.8v-3.6c.2-.4.5-.7.9-.8h3.6c.4.2.7.5.8.8v3.2c0,.6-.2,1-.8,1.3h0ZM5,34.4c-.3-.3-.8-.3-1.2-.3s-1,0-1.3.4c-.3.3-.3.8-.3,1.2s0,1,.4,1.3c.3.3.8.3,1.2.3s1,0,1.3-.4c.4-.5.5-2,0-2.5h-.1Z"/>
    <path d="M5,2.4c.6.5.5,2.1,0,2.5-.3.4-.8.4-1.3.4s-.9,0-1.2-.3c-.4-.3-.4-.8-.4-1.3s0-.9.3-1.2c.3-.4.8-.4,1.3-.4s.9,0,1.2.3h.1Z"/>
    <path d="M37,2.4c.6.6.5,2.1,0,2.5-.3.4-.8.4-1.3.4s-.9,0-1.2-.3c-.4-.3-.4-.8-.4-1.3s0-.9.3-1.2c.3-.4.8-.4,1.3-.4s.9,0,1.2.3h.1Z"/>
    <path d="M5,34.4c.6.5.5,2.1,0,2.5-.3.4-.8.4-1.3.4s-.9,0-1.2-.3c-.4-.3-.4-.8-.4-1.3s0-.9.3-1.2c.3-.4.8-.4,1.3-.4s.9,0,1.2.3h.1Z"/>
  </g>
  <g>
    <path class="st0" d="M17.4,18.9l-1.7,1.1c-.4-5.5,7.1-6,8-1.2l-2.9-1.7-2.6,1.9c.1.3.8.8,1.1,1-.7,0-1.5-.8-1.9-1.1Z"/>
    <path class="st0" d="M20.8,17.2c2.4,2.3.5,6.4-4.4,4.7,3.5,4.7,11-1.2,4.4-4.7Z"/>
  </g>
</svg>