<?xml version="1.0" encoding="UTF-8"?>
<svg id="_레이어_1" data-name="레이어 1" xmlns="http://www.w3.org/2000/svg" xmlns:xlink="http://www.w3.org/1999/xlink" viewBox="0 0 79.37 9.92">
  <defs>
    <style>
      .cls-1 {
        fill: none;
      }

      .cls-2 {
        fill: #6d319d;
      }

      .cls-3 {
        fill: #fbb03b;
      }

      .cls-4 {
        fill: #18181b;
      }

      .cls-5 {
        clip-path: url(#clippath);
      }
    </style>
    <clipPath id="clippath">
      <rect class="cls-1" width="79.37" height="9.92"/>
    </clipPath>
  </defs>
  <g class="cls-5">
    <g>
      <path class="cls-2" d="M11.45,8.51l-1.9-2.74-.44-.64-.16-.23-.56-.81-.56.81-.6.87.03.05.53.76h0s.16.24.16.24l.34.49H2.88l2.7-3.91,1.04,1.5.16.23.25-.37.91-1.32-.16-.24-1.46-2.11c-.36-.52-1.13-.52-1.49,0L.2,7.8c-.42.6.01,1.42.74,1.42h5.74c.17,0,.33-.05.47-.13.03-.02.06-.04.08-.06.01-.01.03-.02.04-.03.06-.05.1-.1.15-.16l.39-.56.56-.81,1.03,1.48c.12.18.32.28.54.28h1.12c.36,0,.58-.41.37-.71Z"/>
      <path class="cls-3" d="M11.91,2.32h-2.31l-.44.65-.17.24-.6.87-.56.81-.6.87-1.06,1.54-1.23,1.78-.03.04h0s-.04.06-.06.09h1.85c.17,0,.33-.05.47-.13.03-.02.06-.04.08-.06.01,0,.03-.02.04-.03.05-.05.1-.1.15-.16l.39-.56.26-.38.3-.44.1-.15.14-.2.36-.53.56-.81.6-.87,1.29-1.87s.03-.05.04-.07l.42-.64h0Z"/>
      <path class="cls-4" d="M15.93,4.65c-.39.24-.87.4-1.45.5l.47.95c.67-.12,1.25-.34,1.72-.65.35-.23.63-.5.85-.8,0,0,.01-.02.02-.03.06-.09.12-.18.17-.28,0-.01.01-.02.02-.03.16-.32.27-.66.32-1.02,0,0,0,0,0-.01,0-.06.01-.12.02-.19,0,0,0-.01,0-.02,0,0,0-.02,0-.03.01-.11.02-.23.03-.34,0-.03,0-.07,0-.1.01-.16.03-.31.04-.47h-3.36v.97h2.25c-.04.26-.12.5-.26.74-.19.32-.47.6-.86.83Z"/>
      <path class="cls-4" d="M18.78,5.42c.38.24.84.42,1.35.55.23.05.46-.06.57-.27.14-.29-.01-.63-.32-.72-.33-.09-.62-.2-.87-.35-.4-.23-.69-.5-.88-.82-.05-.08-.09-.15-.12-.23-.04.19-.09.38-.16.57-.08.22-.19.43-.31.63.21.24.45.45.75.64Z"/>
      <path class="cls-4" d="M20.61,2.11h-1.94c-.02.21-.04.41-.06.62-.01.12-.02.23-.03.35h2.03v-.97Z"/>
      <path class="cls-4" d="M18.32,5.98h-1.21v1.41h-2.89v.97h6.99v-.97h-2.9v-1.41Z"/>
      <path class="cls-4" d="M26.74,3.92s0,.06,0,.08h0c0,.17-.02.33-.03.5-.01.15-.03.29-.04.43,0,.03,0,.07-.01.11,0,.04,0,.08-.01.12-.03.2-.06.41-.1.62-.06.34.18.65.52.69.3.03.58-.18.63-.48.06-.32.11-.62.14-.9.05-.43.08-.8.09-1.09,0-.29.02-.69.02-1.18v-.65h-5.68v.96h4.49c0,.29,0,.55-.02.79Z"/>
      <path class="cls-4" d="M26.15,4.97c.02-.16.04-.33.06-.5.01-.15.02-.29.03-.43l-3.99.13.16,1.02,3.73-.21Z"/>
      <path class="cls-4" d="M25.35,5.86h-1.19v1.55h-2.55v.97h6.98v-.97h-3.24v-1.55Z"/>
      <path class="cls-4" d="M34.08,6.37c-.4-.12-.86-.18-1.4-.18-.55,0-1.02.06-1.42.18-.4.12-.7.29-.91.52-.21.23-.31.5-.31.82s.1.59.31.81c.21.23.52.4.91.52s.87.18,1.42.18c.08,0,.15,0,.23,0,.25,0,.44-.21.44-.46,0-.26-.22-.47-.48-.46-.06,0-.12,0-.19,0-.32,0-.59-.02-.81-.07-.21-.04-.37-.11-.48-.2-.11-.09-.16-.2-.16-.33,0-.14.05-.26.16-.34.1-.09.26-.15.48-.18.21-.04.48-.06.81-.06s.6.02.81.06c.21.04.38.1.49.19.11.09.16.2.16.34,0,.13-.05.24-.16.33-.04.03-.08.06-.13.08v.99c.08-.02.16-.04.23-.06.4-.12.7-.3.92-.52.22-.23.32-.5.32-.81s-.11-.59-.32-.82c-.21-.23-.52-.41-.92-.52Z"/>
      <path class="cls-4" d="M30.46,5.31c0-.06.01-.12.02-.19,0-.07,0-.15,0-.21v-.15s0-.03,0-.04v-1.64h2.48v-.96h-3.67v3.6h.67c.15,0,.29,0,.43,0,.03-.12.05-.26.07-.41Z"/>
      <path class="cls-4" d="M30.97,4.76c0,.12,0,.26,0,.4-.01.21-.04.39-.07.56.51,0,.93-.02,1.26-.04.36-.02.71-.06,1.04-.11.25-.04.43-.27.4-.53-.03-.28-.28-.47-.55-.43-.32.05-.66.08-1,.1-.3.02-.66.03-1.08.04h0Z"/>
      <path class="cls-4" d="M35.3,1.56h-1.21v4.54h1.21V1.56Z"/>
      <path class="cls-4" d="M47.62,8.3l.1.14s-.05-.05-.06-.08c-.01-.02-.02-.04-.03-.06Z"/>
      <path class="cls-4" d="M50.98,6.03c.34,0,.69,0,1.04,0v-2.83h.93v2.8c.34-.02.69-.04,1.03-.07v-2.72h.63v-.96h-4.25v.96h.62v2.84Z"/>
      <path class="cls-4" d="M54.13,6.4c-1.07.1-2.2.11-3.28.11-.22,0-.44,0-.67,0l.11.99c.87,0,1.68-.03,2.42-.07.6-.03,1.18-.1,1.75-.18.22-.03.39-.23.37-.46-.01-.25-.23-.43-.48-.41-.07,0-.15.01-.22.02h0Z"/>
      <path class="cls-4" d="M56.34,1.56h-1.21v7.66h1.21v-3.81h1.08v-.97h-1.08V1.56Z"/>
      <path class="cls-4" d="M59.67,5.71v-2.64h4.17v-.97h-5.4v4.31h1.22v-.69Z"/>
      <path class="cls-4" d="M63.66,3.76h-3.5v.94h3.5v-.94Z"/>
      <path class="cls-4" d="M60.16,6.4h3.27c.26,0,.47-.21.47-.47s-.21-.47-.47-.47h-3.27v.94Z"/>
      <path class="cls-4" d="M64.65,7.39h-6.99v.97h6.99v-.97Z"/>
      <path class="cls-4" d="M65.42,6.46v.99h.66c.18,0,.36,0,.54,0V2.37h-1.2v4.1h0Z"/>
      <path class="cls-4" d="M67.81,6.39c-.23.02-.47.04-.7.05,0,.15,0,.31,0,.47,0,.18,0,.35-.01.53.27-.01.54-.03.8-.05.43-.03.85-.09,1.27-.16.26-.05.44-.29.41-.55-.03-.28-.3-.48-.57-.43-.4.07-.8.11-1.2.15Z"/>
      <path class="cls-4" d="M70.33,3.88h-1.99v.97h1.99v4.39h1.2V1.56h-1.2v2.32Z"/>
      <path class="cls-4" d="M74.81,5.38c.17-.12.32-.25.46-.39.31-.33.75-.88,1.01-1.66.14-.42.21-.81.23-1.12v-.22h-1.28v.54c0,.37-.1.73-.3,1.08-.2.35-.5.67-.9.94-.4.27-.89.46-1.47.56l.51,1c.68-.13,1.26-.38,1.75-.73Z"/>
      <path class="cls-4" d="M76.93,5.39c.37.27.81.48,1.3.62.25.07.52-.04.64-.27.16-.3,0-.67-.32-.77-.32-.1-.6-.23-.85-.4-.4-.27-.71-.58-.9-.93-.01-.02-.02-.04-.03-.06-.18.5-.46.84-.64,1.03.22.29.48.56.8.79Z"/>
      <path class="cls-4" d="M79.41,7.33h-6.99v.98h6.99v-.98Z"/>
      <path class="cls-4" d="M50.85,6.52s0,0,.01,0h-.01Z"/>
      <path class="cls-4" d="M26.74,4s0,0,0,.01h0s0-.01,0-.01Z"/>
      <path class="cls-4" d="M42.66,8.6h-.74c-.12,0-.23-.07-.28-.18l-.51-1.19s0,0,0,0h-2.44s-.01,0,0-.01c.16-.38.32-.76.48-1.14,0,0,0,0,0,0h1.46s.01,0,0-.01c-.31-.73-.62-1.47-.93-2.2-.02-.06-.11-.06-.13,0l-.78,1.83c-.26.6-.51,1.21-.77,1.81l-.37.87c-.07.16-.22.26-.39.26h-.68c-.25,0-.42-.26-.32-.49l2.53-5.71c.14-.31.45-.52.79-.52h.09c.34,0,.65.2.79.51.87,1.97,1.55,3.48,2.42,5.45l.11.24c.11.24-.07.51-.33.51Z"/>
      <path class="cls-4" d="M46.19,3.65c-.3.43-.6.86-.89,1.29l-2.12-3.05h1.79c.41.59.82,1.17,1.22,1.76Z"/>
      <path class="cls-4" d="M38.13,7.22l-.11.25c.04-.09.07-.17.11-.25Z"/>
      <path class="cls-4" d="M18.08,3.06s0-.02,0-.03c0,.01,0,.02,0,.03,0,0,0,.01,0,.02,0,.06-.01.13-.02.19,0-.06.01-.12.02-.19,0,0,0-.01,0-.02Z"/>
      <path class="cls-4" d="M47.37,5.37c.81-1.16,1.62-2.32,2.43-3.48h-1.73c-1.56,2.24-3.13,4.48-4.69,6.71h1.73c.45-.65.91-1.3,1.36-1.95l1.14,1.65h0s.1.15.1.15c.09.1.22.16.36.16h.87c.28,0,.45-.32.29-.55-.62-.89-1.24-1.78-1.86-2.69Z"/>
    </g>
  </g>
</svg>